STARTFONT 2.1
COMMENT
COMMENT Converted from TrueType font "BOOKOS.ttf" by "ttf2bdf 2.6".
COMMENT
FONT -FreeType-Bookman Old Style-Medium-R-Normal--19-140-100-100-P-110-ISO10646-1
SIZE 14 100 100
FONTBOUNDINGBOX 29 25 -3 -6
STARTPROPERTIES 21
FOUNDRY "FreeType"
FAMILY_NAME "Bookman Old Style"
WEIGHT_NAME "Medium"
SLANT "R"
SETWIDTH_NAME "Normal"
ADD_STYLE_NAME ""
PIXEL_SIZE 19
POINT_SIZE 140
RESOLUTION_X 100
RESOLUTION_Y 100
SPACING "P"
AVERAGE_WIDTH 110
CHARSET_REGISTRY "ISO10646"
CHARSET_ENCODING "1"
FONT_ASCENT 17
FONT_DESCENT 4
COPYRIGHT "Digitized data copyright The Monotype Corporation 1991-1995. All rights reserved. Bookman Old Style" is a trademark of The Monotype Corporation which may be registered in certain jurisdictions."
_TTF_FONTFILE "BOOKOS.ttf"
_TTF_PSNAME "BookmanOldStyle"
_XFREE86_GLYPH_RANGES "32_126 160_383 402 506_511 710_711 713 728_733 894 900_906 908 910_929 931_974 1025_1036 1038_1103 1105_1116 1118_1119 1168_1169 7808_7813 7922_7923 8211_8213 8215_8222 8224_8226 8230 8240 8242_8243 8249_8250 8252 8254 8260 8319 8355_8356 8359 8364 8453 8467 8470 8482 8486 8494 8539_8542 8592_8597 8616 8706 8710 8719 8721_8722 8725 8729_8730 8734_8735 8745 8747 8776 8800_8801 8804_8805 8962 8976 8992_8993 9472 9474 9484 9488 9492 9496 9500 9508 9516 9524 9532 9552_9580 9600 9604 9608"
_XFREE86_GLYPH_RANGES "9612 9616_9619 9632_9633 9642_9644 9650 9658 9660 9668 9674_9675 9679 9688_9689 9702 9786_9788 9792 9794 9824 9827 9829_9830 9834_9835 61440_61449 61696_61704 64257_64258"
ENDPROPERTIES
CHARS 671
STARTCHAR 0020
ENCODING 32
SWIDTH 308 0
DWIDTH 6 0
BBX 1 1 0 0
BITMAP
00
ENDCHAR
STARTCHAR 0021
ENCODING 33
SWIDTH 308 0
DWIDTH 6 0
BBX 2 13 1 0
BITMAP
C0
C0
C0
C0
C0
C0
40
40
40
40
00
C0
C0
ENDCHAR
STARTCHAR 0022
ENCODING 34
SWIDTH 360 0
DWIDTH 7 0
BBX 6 5 1 8
BITMAP
CC
CC
CC
44
44
ENDCHAR
STARTCHAR 0023
ENCODING 35
SWIDTH 771 0
DWIDTH 15 0
BBX 11 13 2 0
BITMAP
18C0
18C0
18C0
3180
7FE0
3180
3180
3180
FFE0
3180
6300
6300
6300
ENDCHAR
STARTCHAR 0024
ENCODING 36
SWIDTH 617 0
DWIDTH 12 0
BBX 11 17 1 -2
BITMAP
0400
0400
3E80
65C0
C4C0
C4C0
E400
7C00
1F80
07C0
84E0
C460
C460
74C0
5F80
0400
0400
ENDCHAR
STARTCHAR 0025
ENCODING 37
SWIDTH 977 0
DWIDTH 19 0
BBX 18 13 0 0
BITMAP
380600
E40C00
C60C00
C61800
C63000
EC6000
786700
00CC80
0198C0
0318C0
0618C0
061D80
0C0F00
ENDCHAR
STARTCHAR 0026
ENCODING 38
SWIDTH 771 0
DWIDTH 15 0
BBX 14 13 1 0
BITMAP
1E00
3300
3300
3300
1200
1C78
7620
E360
C158
C1DC
C18C
63CC
3E78
ENDCHAR
STARTCHAR 0027
ENCODING 39
SWIDTH 205 0
DWIDTH 4 0
BBX 2 5 1 8
BITMAP
C0
C0
C0
40
40
ENDCHAR
STARTCHAR 0028
ENCODING 40
SWIDTH 308 0
DWIDTH 6 0
BBX 4 18 2 -4
BITMAP
30
20
60
40
C0
C0
C0
C0
C0
C0
C0
C0
C0
C0
40
60
20
30
ENDCHAR
STARTCHAR 0029
ENCODING 41
SWIDTH 308 0
DWIDTH 6 0
BBX 4 18 0 -4
BITMAP
C0
40
60
20
30
30
30
30
30
30
30
30
30
30
20
60
40
C0
ENDCHAR
STARTCHAR 002A
ENCODING 42
SWIDTH 411 0
DWIDTH 8 0
BBX 8 7 1 6
BITMAP
18
18
18
F7
3C
66
66
ENDCHAR
STARTCHAR 002B
ENCODING 43
SWIDTH 565 0
DWIDTH 11 0
BBX 10 10 1 2
BITMAP
0C00
0C00
0C00
0C00
FFC0
FFC0
0C00
0C00
0C00
0C00
ENDCHAR
STARTCHAR 002C
ENCODING 44
SWIDTH 308 0
DWIDTH 6 0
BBX 3 5 2 -3
BITMAP
E0
E0
20
40
80
ENDCHAR
STARTCHAR 002D
ENCODING 45
SWIDTH 411 0
DWIDTH 8 0
BBX 6 1 1 4
BITMAP
FC
ENDCHAR
STARTCHAR 002E
ENCODING 46
SWIDTH 308 0
DWIDTH 6 0
BBX 2 2 2 0
BITMAP
C0
C0
ENDCHAR
STARTCHAR 002F
ENCODING 47
SWIDTH 565 0
DWIDTH 11 0
BBX 7 18 1 -4
BITMAP
06
06
06
0C
0C
0C
18
18
18
30
30
30
30
60
60
60
C0
C0
ENDCHAR
STARTCHAR 0030
ENCODING 48
SWIDTH 617 0
DWIDTH 12 0
BBX 10 13 1 0
BITMAP
1E00
3300
6180
C0C0
C0C0
C0C0
C0C0
C0C0
C0C0
C0C0
6180
3300
1E00
ENDCHAR
STARTCHAR 0031
ENCODING 49
SWIDTH 617 0
DWIDTH 12 0
BBX 6 13 3 0
BITMAP
30
F0
30
30
30
30
30
30
30
30
30
30
FC
ENDCHAR
STARTCHAR 0032
ENCODING 50
SWIDTH 617 0
DWIDTH 12 0
BBX 9 13 1 0
BITMAP
3E00
4300
8180
8180
8180
0180
0300
0700
0E00
1800
3080
4080
FF00
ENDCHAR
STARTCHAR 0033
ENCODING 51
SWIDTH 617 0
DWIDTH 12 0
BBX 10 13 1 0
BITMAP
1E00
2380
4180
4180
0300
1C00
0380
00C0
00C0
C0C0
C0C0
6180
3E00
ENDCHAR
STARTCHAR 0034
ENCODING 52
SWIDTH 617 0
DWIDTH 12 0
BBX 10 13 1 0
BITMAP
0300
0700
0F00
1B00
3300
6300
6300
C300
FFC0
0300
0300
0300
0300
ENDCHAR
STARTCHAR 0035
ENCODING 53
SWIDTH 617 0
DWIDTH 12 0
BBX 10 13 1 0
BITMAP
7F80
7F80
4000
4000
7E00
0380
01C0
00C0
00C0
C0C0
C180
6380
3E00
ENDCHAR
STARTCHAR 0036
ENCODING 54
SWIDTH 617 0
DWIDTH 12 0
BBX 10 13 1 0
BITMAP
0F00
3800
6000
6000
DF00
E180
C0C0
C0C0
C0C0
C0C0
60C0
6180
1F00
ENDCHAR
STARTCHAR 0037
ENCODING 55
SWIDTH 617 0
DWIDTH 12 0
BBX 10 13 1 0
BITMAP
7FC0
8080
8180
0100
0300
0600
0600
0C00
0C00
0C00
1800
1800
1800
ENDCHAR
STARTCHAR 0038
ENCODING 56
SWIDTH 617 0
DWIDTH 12 0
BBX 10 13 1 0
BITMAP
1E00
3380
6180
6180
7300
3E00
1F00
6380
C0C0
C0C0
C0C0
6180
3F00
ENDCHAR
STARTCHAR 0039
ENCODING 57
SWIDTH 617 0
DWIDTH 12 0
BBX 10 13 1 0
BITMAP
3E00
6180
C180
C0C0
C0C0
C0C0
C0C0
61C0
3EC0
0180
0180
0700
3C00
ENDCHAR
STARTCHAR 003A
ENCODING 58
SWIDTH 308 0
DWIDTH 6 0
BBX 2 9 2 0
BITMAP
C0
C0
00
00
00
00
00
C0
C0
ENDCHAR
STARTCHAR 003B
ENCODING 59
SWIDTH 308 0
DWIDTH 6 0
BBX 3 12 2 -3
BITMAP
C0
C0
00
00
00
00
00
E0
E0
20
40
80
ENDCHAR
STARTCHAR 003C
ENCODING 60
SWIDTH 565 0
DWIDTH 11 0
BBX 8 9 1 2
BITMAP
01
0F
3E
F0
C0
F0
3E
0F
01
ENDCHAR
STARTCHAR 003D
ENCODING 61
SWIDTH 565 0
DWIDTH 11 0
BBX 9 6 1 4
BITMAP
FF80
FF80
0000
0000
FF80
FF80
ENDCHAR
STARTCHAR 003E
ENCODING 62
SWIDTH 565 0
DWIDTH 11 0
BBX 8 9 2 2
BITMAP
80
F0
7C
0F
03
0F
7C
F0
80
ENDCHAR
STARTCHAR 003F
ENCODING 63
SWIDTH 514 0
DWIDTH 10 0
BBX 8 13 1 0
BITMAP
7C
E6
C3
03
03
03
06
1E
18
18
00
18
18
ENDCHAR
STARTCHAR 0040
ENCODING 64
SWIDTH 822 0
DWIDTH 16 0
BBX 16 17 0 -4
BITMAP
03E0
0C18
100C
2004
41D2
43B2
8712
8612
8E22
8C24
8C64
8DE8
4671
4002
2004
1818
07E0
ENDCHAR
STARTCHAR 0041
ENCODING 65
SWIDTH 668 0
DWIDTH 13 0
BBX 14 13 -1 0
BITMAP
0380
0380
06C0
06C0
0CE0
0C60
0C60
1FF0
1830
3030
3018
3018
F83C
ENDCHAR
STARTCHAR 0042
ENCODING 66
SWIDTH 720 0
DWIDTH 14 0
BBX 13 13 0 0
BITMAP
FFC0
3060
3030
3030
3030
3060
3F80
3070
3018
3018
3018
3030
FFE0
ENDCHAR
STARTCHAR 0043
ENCODING 67
SWIDTH 720 0
DWIDTH 14 0
BBX 12 13 1 0
BITMAP
0F40
30C0
6060
6060
C020
C000
C000
C000
C000
6010
6020
3840
0F80
ENDCHAR
STARTCHAR 0044
ENCODING 68
SWIDTH 771 0
DWIDTH 15 0
BBX 13 13 1 0
BITMAP
FF80
3060
3030
3030
3018
3018
3018
3018
3018
3030
3030
3060
FF80
ENDCHAR
STARTCHAR 0045
ENCODING 69
SWIDTH 668 0
DWIDTH 13 0
BBX 12 13 1 0
BITMAP
FFE0
3060
3030
3010
3100
3100
3F00
3100
3100
3010
3030
3060
FFE0
ENDCHAR
STARTCHAR 0046
ENCODING 70
SWIDTH 617 0
DWIDTH 12 0
BBX 11 13 1 0
BITMAP
FFC0
3040
3060
3020
3100
3100
3F00
3100
3100
3000
3000
3000
FC00
ENDCHAR
STARTCHAR 0047
ENCODING 71
SWIDTH 771 0
DWIDTH 15 0
BBX 14 13 1 0
BITMAP
0FA0
38E0
6030
6030
C010
C000
C000
C0FC
C030
6030
6030
3870
0F90
ENDCHAR
STARTCHAR 0048
ENCODING 72
SWIDTH 771 0
DWIDTH 15 0
BBX 13 13 1 0
BITMAP
FDF8
3060
3060
3060
3060
3060
3FE0
3060
3060
3060
3060
3060
FDF8
ENDCHAR
STARTCHAR 0049
ENCODING 73
SWIDTH 360 0
DWIDTH 7 0
BBX 6 13 0 0
BITMAP
FC
30
30
30
30
30
30
30
30
30
30
30
FC
ENDCHAR
STARTCHAR 004A
ENCODING 74
SWIDTH 565 0
DWIDTH 11 0
BBX 11 13 0 0
BITMAP
07E0
0180
0180
0180
0180
0180
0180
0180
C180
C180
C180
6300
3E00
ENDCHAR
STARTCHAR 004B
ENCODING 75
SWIDTH 720 0
DWIDTH 14 0
BBX 13 13 1 0
BITMAP
FCF8
3060
3040
3080
3100
3200
3600
3B00
3180
30C0
30C0
3060
FCF8
ENDCHAR
STARTCHAR 004C
ENCODING 76
SWIDTH 565 0
DWIDTH 11 0
BBX 10 13 1 0
BITMAP
FC00
3000
3000
3000
3000
3000
3000
3000
3000
3040
3080
3180
FF80
ENDCHAR
STARTCHAR 004D
ENCODING 77
SWIDTH 874 0
DWIDTH 17 0
BBX 17 13 0 0
BITMAP
FC1F80
3C1E00
3C1E00
341600
363600
363600
362600
336600
336600
336600
31C600
31C600
FDDF80
ENDCHAR
STARTCHAR 004E
ENCODING 78
SWIDTH 720 0
DWIDTH 14 0
BBX 14 13 0 0
BITMAP
F8FC
3C30
3430
3630
3230
3330
3130
31B0
30B0
30F0
3070
3070
FC30
ENDCHAR
STARTCHAR 004F
ENCODING 79
SWIDTH 771 0
DWIDTH 15 0
BBX 13 13 1 0
BITMAP
0F80
3060
6030
6030
C018
C018
C018
C018
C018
6030
6030
3060
0F80
ENDCHAR
STARTCHAR 0050
ENCODING 80
SWIDTH 617 0
DWIDTH 12 0
BBX 11 13 1 0
BITMAP
FF80
30C0
3060
3060
3060
30C0
3F80
3000
3000
3000
3000
3000
FC00
ENDCHAR
STARTCHAR 0051
ENCODING 81
SWIDTH 771 0
DWIDTH 15 0
BBX 13 16 1 -3
BITMAP
0F80
3060
6030
6030
C018
C018
C018
C018
C018
6030
6030
3060
0FC0
0300
0310
01E0
ENDCHAR
STARTCHAR 0052
ENCODING 82
SWIDTH 720 0
DWIDTH 14 0
BBX 13 13 1 0
BITMAP
FFC0
3060
3030
3030
3030
3060
3FC0
3300
3180
30C0
30C0
3060
FC38
ENDCHAR
STARTCHAR 0053
ENCODING 83
SWIDTH 668 0
DWIDTH 13 0
BBX 11 13 1 0
BITMAP
3E80
6380
C0C0
C0C0
E040
7E00
1F80
01E0
8060
C060
E060
70C0
5F80
ENDCHAR
STARTCHAR 0054
ENCODING 84
SWIDTH 617 0
DWIDTH 12 0
BBX 12 13 0 0
BITMAP
7FE0
6660
C630
8610
0600
0600
0600
0600
0600
0600
0600
0600
1F80
ENDCHAR
STARTCHAR 0055
ENCODING 85
SWIDTH 771 0
DWIDTH 15 0
BBX 14 13 0 0
BITMAP
FCFC
3030
3030
3030
3030
3030
3030
3030
3030
3030
3060
1860
0780
ENDCHAR
STARTCHAR 0056
ENCODING 86
SWIDTH 668 0
DWIDTH 13 0
BBX 15 13 -1 0
BITMAP
F83E
3018
3018
1830
1830
1830
0C60
0C60
0EE0
06C0
06C0
0380
0380
ENDCHAR
STARTCHAR 0057
ENCODING 87
SWIDTH 925 0
DWIDTH 18 0
BBX 19 13 0 0
BITMAP
FFF3E0
60C180
30C180
30C180
30E300
18E300
18E300
19B300
0DB600
0DB600
059600
071C00
071C00
ENDCHAR
STARTCHAR 0058
ENCODING 88
SWIDTH 720 0
DWIDTH 14 0
BBX 14 13 0 0
BITMAP
7C7C
3030
1860
0C60
06C0
0780
0300
0780
0CC0
1C60
1860
3030
F87C
ENDCHAR
STARTCHAR 0059
ENCODING 89
SWIDTH 617 0
DWIDTH 12 0
BBX 13 13 0 0
BITMAP
F8F8
3060
30C0
18C0
1980
0F00
0F00
0600
0600
0600
0600
0600
1F80
ENDCHAR
STARTCHAR 005A
ENCODING 90
SWIDTH 617 0
DWIDTH 12 0
BBX 12 13 0 0
BITMAP
3FE0
60C0
40C0
8180
0300
0600
0E00
0C00
1800
3010
6020
6060
FFE0
ENDCHAR
STARTCHAR 005B
ENCODING 91
SWIDTH 308 0
DWIDTH 6 0
BBX 4 18 2 -4
BITMAP
F0
C0
C0
C0
C0
C0
C0
C0
C0
C0
C0
C0
C0
C0
C0
C0
C0
F0
ENDCHAR
STARTCHAR 005C
ENCODING 92
SWIDTH 565 0
DWIDTH 11 0
BBX 7 18 2 -4
BITMAP
C0
C0
C0
60
60
60
30
30
30
18
18
18
0C
0C
0C
06
06
06
ENDCHAR
STARTCHAR 005D
ENCODING 93
SWIDTH 308 0
DWIDTH 6 0
BBX 4 18 1 -4
BITMAP
F0
30
30
30
30
30
30
30
30
30
30
30
30
30
30
30
30
F0
ENDCHAR
STARTCHAR 005E
ENCODING 94
SWIDTH 565 0
DWIDTH 11 0
BBX 9 8 1 5
BITMAP
1C00
1C00
3600
3600
6300
6300
C180
C180
ENDCHAR
STARTCHAR 005F
ENCODING 95
SWIDTH 514 0
DWIDTH 10 0
BBX 10 1 0 -2
BITMAP
FFC0
ENDCHAR
STARTCHAR 0060
ENCODING 96
SWIDTH 308 0
DWIDTH 6 0
BBX 4 2 1 11
BITMAP
E0
70
ENDCHAR
STARTCHAR 0061
ENCODING 97
SWIDTH 565 0
DWIDTH 11 0
BBX 11 9 1 0
BITMAP
3F00
6180
6180
0F80
7180
C180
C180
C780
78E0
ENDCHAR
STARTCHAR 0062
ENCODING 98
SWIDTH 617 0
DWIDTH 12 0
BBX 11 14 0 0
BITMAP
3000
F000
3000
3000
3000
3780
38C0
3060
3060
3060
3060
3060
38C0
2780
ENDCHAR
STARTCHAR 0063
ENCODING 99
SWIDTH 514 0
DWIDTH 10 0
BBX 8 9 1 0
BITMAP
3E
63
C1
C0
C0
C0
C1
62
3C
ENDCHAR
STARTCHAR 0064
ENCODING 100
SWIDTH 617 0
DWIDTH 12 0
BBX 11 14 1 0
BITMAP
0180
0780
0180
0180
0180
3D80
6380
C180
C180
C180
C180
C180
6380
3DE0
ENDCHAR
STARTCHAR 0065
ENCODING 101
SWIDTH 514 0
DWIDTH 10 0
BBX 8 9 1 0
BITMAP
3C
66
C3
FF
C0
C0
C1
62
3C
ENDCHAR
STARTCHAR 0066
ENCODING 102
SWIDTH 308 0
DWIDTH 6 0
BBX 8 14 0 0
BITMAP
0F
13
30
30
30
FC
30
30
30
30
30
30
30
FC
ENDCHAR
STARTCHAR 0067
ENCODING 103
SWIDTH 514 0
DWIDTH 10 0
BBX 9 13 1 -4
BITMAP
3D80
E600
C300
C300
6700
7C00
C000
F000
3F00
4180
C180
C380
7E00
ENDCHAR
STARTCHAR 0068
ENCODING 104
SWIDTH 668 0
DWIDTH 13 0
BBX 13 14 0 0
BITMAP
3000
F000
3000
3000
3000
37C0
3860
3060
3060
3060
3060
3060
3060
FDF8
ENDCHAR
STARTCHAR 0069
ENCODING 105
SWIDTH 308 0
DWIDTH 6 0
BBX 6 14 0 0
BITMAP
30
30
00
00
00
30
F0
30
30
30
30
30
30
FC
ENDCHAR
STARTCHAR 006A
ENCODING 106
SWIDTH 308 0
DWIDTH 6 0
BBX 6 18 -2 -4
BITMAP
0C
0C
00
00
00
0C
3C
0C
0C
0C
0C
0C
0C
0C
0C
0C
CC
F0
ENDCHAR
STARTCHAR 006B
ENCODING 107
SWIDTH 617 0
DWIDTH 12 0
BBX 12 14 0 0
BITMAP
3000
F000
3000
3000
3000
31F0
3180
3300
3600
3E00
3300
3180
30C0
FDF0
ENDCHAR
STARTCHAR 006C
ENCODING 108
SWIDTH 308 0
DWIDTH 6 0
BBX 6 14 0 0
BITMAP
30
F0
30
30
30
30
30
30
30
30
30
30
30
FC
ENDCHAR
STARTCHAR 006D
ENCODING 109
SWIDTH 925 0
DWIDTH 18 0
BBX 18 9 0 0
BITMAP
379E00
F8E300
30C300
30C300
30C300
30C300
30C300
30C300
FFFFC0
ENDCHAR
STARTCHAR 006E
ENCODING 110
SWIDTH 668 0
DWIDTH 13 0
BBX 13 9 0 0
BITMAP
37C0
F860
3060
3060
3060
3060
3060
3060
FDF8
ENDCHAR
STARTCHAR 006F
ENCODING 111
SWIDTH 565 0
DWIDTH 11 0
BBX 9 9 1 0
BITMAP
3E00
6300
C180
C180
C180
C180
C180
6300
3E00
ENDCHAR
STARTCHAR 0070
ENCODING 112
SWIDTH 617 0
DWIDTH 12 0
BBX 11 13 0 -4
BITMAP
3780
F8C0
3060
3060
3060
3060
3060
38C0
3780
3000
3000
3000
FC00
ENDCHAR
STARTCHAR 0071
ENCODING 113
SWIDTH 565 0
DWIDTH 11 0
BBX 11 13 1 -4
BITMAP
3C80
6380
C180
C180
C180
C180
C180
6380
3D80
0180
0180
0180
07E0
ENDCHAR
STARTCHAR 0072
ENCODING 114
SWIDTH 411 0
DWIDTH 8 0
BBX 8 9 0 0
BITMAP
37
F9
30
30
30
30
30
30
FC
ENDCHAR
STARTCHAR 0073
ENCODING 115
SWIDTH 514 0
DWIDTH 10 0
BBX 8 9 1 0
BITMAP
7A
C6
C2
F0
3E
07
83
E3
5E
ENDCHAR
STARTCHAR 0074
ENCODING 116
SWIDTH 360 0
DWIDTH 7 0
BBX 8 12 0 0
BITMAP
10
10
30
FE
30
30
30
30
30
30
31
1E
ENDCHAR
STARTCHAR 0075
ENCODING 117
SWIDTH 668 0
DWIDTH 13 0
BBX 13 9 0 0
BITMAP
F1E0
3060
3060
3060
3060
3060
3060
30E0
1F78
ENDCHAR
STARTCHAR 0076
ENCODING 118
SWIDTH 565 0
DWIDTH 11 0
BBX 12 9 0 0
BITMAP
F1F0
60C0
60C0
3180
3180
1B00
1B00
0E00
0E00
ENDCHAR
STARTCHAR 0077
ENCODING 119
SWIDTH 771 0
DWIDTH 15 0
BBX 15 9 -1 0
BITMAP
FFFE
738C
3188
3188
19D0
1AD0
1AD0
0C60
0C60
ENDCHAR
STARTCHAR 0078
ENCODING 120
SWIDTH 565 0
DWIDTH 11 0
BBX 11 9 0 0
BITMAP
F9E0
30C0
1980
0F00
0600
0F00
1980
30C0
F3E0
ENDCHAR
STARTCHAR 0079
ENCODING 121
SWIDTH 514 0
DWIDTH 10 0
BBX 10 13 0 -4
BITMAP
FBC0
6080
3100
3100
1A00
1A00
0E00
0C00
0C00
0800
0800
D000
F000
ENDCHAR
STARTCHAR 007A
ENCODING 122
SWIDTH 462 0
DWIDTH 9 0
BBX 9 9 0 0
BITMAP
7F80
C300
8600
0C00
1800
3800
3080
6180
FF00
ENDCHAR
STARTCHAR 007B
ENCODING 123
SWIDTH 257 0
DWIDTH 5 0
BBX 6 17 1 -4
BITMAP
0C
18
30
30
30
30
30
60
80
60
30
30
30
30
30
18
0C
ENDCHAR
STARTCHAR 007C
ENCODING 124
SWIDTH 565 0
DWIDTH 11 0
BBX 2 18 5 -4
BITMAP
C0
C0
C0
C0
C0
C0
C0
C0
C0
C0
C0
C0
C0
C0
C0
C0
C0
C0
ENDCHAR
STARTCHAR 007D
ENCODING 125
SWIDTH 257 0
DWIDTH 5 0
BBX 6 17 0 -4
BITMAP
C0
60
30
30
30
30
30
18
04
18
30
30
30
30
30
60
C0
ENDCHAR
STARTCHAR 007E
ENCODING 126
SWIDTH 565 0
DWIDTH 11 0
BBX 8 2 2 5
BITMAP
73
CE
ENDCHAR
STARTCHAR 00A0
ENCODING 160
SWIDTH 308 0
DWIDTH 6 0
BBX 1 1 0 0
BITMAP
00
ENDCHAR
STARTCHAR 00A1
ENCODING 161
SWIDTH 308 0
DWIDTH 6 0
BBX 2 13 1 -4
BITMAP
C0
C0
00
80
80
80
80
C0
C0
C0
C0
C0
C0
ENDCHAR
STARTCHAR 00A2
ENCODING 162
SWIDTH 617 0
DWIDTH 12 0
BBX 8 13 1 0
BITMAP
08
08
3E
6B
CB
C8
C8
C8
C9
6A
3C
08
08
ENDCHAR
STARTCHAR 00A3
ENCODING 163
SWIDTH 617 0
DWIDTH 12 0
BBX 12 13 0 0
BITMAP
0F80
1840
3020
3020
3000
3000
FF80
1800
6C10
9C10
8C30
9E20
7BC0
ENDCHAR
STARTCHAR 00A4
ENCODING 164
SWIDTH 565 0
DWIDTH 11 0
BBX 8 9 1 2
BITMAP
DB
66
C3
C3
C3
C3
C3
66
DB
ENDCHAR
STARTCHAR 00A5
ENCODING 165
SWIDTH 617 0
DWIDTH 12 0
BBX 13 13 0 0
BITMAP
F8F8
7060
30E0
38C0
1980
0F80
0F00
7FE0
0600
7FE0
0600
0600
1F80
ENDCHAR
STARTCHAR 00A6
ENCODING 166
SWIDTH 565 0
DWIDTH 11 0
BBX 2 18 5 -4
BITMAP
C0
C0
C0
C0
C0
C0
C0
80
00
40
C0
C0
C0
C0
C0
C0
C0
C0
ENDCHAR
STARTCHAR 00A7
ENCODING 167
SWIDTH 514 0
DWIDTH 10 0
BBX 9 16 0 -3
BITMAP
3F00
E180
C180
E000
7C00
2F00
4380
C180
C180
7900
3E00
0380
C180
C180
4300
3E00
ENDCHAR
STARTCHAR 00A8
ENCODING 168
SWIDTH 411 0
DWIDTH 8 0
BBX 5 2 1 11
BITMAP
D8
D8
ENDCHAR
STARTCHAR 00A9
ENCODING 169
SWIDTH 720 0
DWIDTH 14 0
BBX 13 13 1 0
BITMAP
0F80
3060
6030
4790
8D88
9888
9808
9808
8C88
4710
6030
3060
0F80
ENDCHAR
STARTCHAR 00AA
ENCODING 170
SWIDTH 411 0
DWIDTH 8 0
BBX 7 6 1 7
BITMAP
78
8C
3C
CC
CC
76
ENDCHAR
STARTCHAR 00AB
ENCODING 171
SWIDTH 360 0
DWIDTH 7 0
BBX 6 6 1 1
BITMAP
24
48
90
90
48
24
ENDCHAR
STARTCHAR 00AC
ENCODING 172
SWIDTH 565 0
DWIDTH 11 0
BBX 9 7 1 0
BITMAP
FF80
FF80
0180
0180
0180
0180
0180
ENDCHAR
STARTCHAR 00AD
ENCODING 173
SWIDTH 411 0
DWIDTH 8 0
BBX 6 1 1 4
BITMAP
FC
ENDCHAR
STARTCHAR 00AE
ENCODING 174
SWIDTH 720 0
DWIDTH 14 0
BBX 13 13 1 0
BITMAP
0F80
3060
6030
5F10
8D88
8D88
8E08
8F08
8D88
5ED0
6030
3060
0F80
ENDCHAR
STARTCHAR 00AF
ENCODING 175
SWIDTH 514 0
DWIDTH 10 0
BBX 10 1 0 14
BITMAP
FFC0
ENDCHAR
STARTCHAR 00B0
ENCODING 176
SWIDTH 411 0
DWIDTH 8 0
BBX 5 5 1 8
BITMAP
70
88
88
88
70
ENDCHAR
STARTCHAR 00B1
ENCODING 177
SWIDTH 514 0
DWIDTH 10 0
BBX 10 13 0 1
BITMAP
0C00
0C00
0C00
0C00
FFC0
FFC0
0C00
0C00
0C00
0C00
0000
FFC0
FFC0
ENDCHAR
STARTCHAR 00B2
ENCODING 178
SWIDTH 360 0
DWIDTH 7 0
BBX 6 7 0 6
BITMAP
78
8C
8C
18
30
44
FC
ENDCHAR
STARTCHAR 00B3
ENCODING 179
SWIDTH 360 0
DWIDTH 7 0
BBX 6 7 0 6
BITMAP
78
8C
0C
30
0C
8C
78
ENDCHAR
STARTCHAR 00B4
ENCODING 180
SWIDTH 308 0
DWIDTH 6 0
BBX 4 2 1 11
BITMAP
70
E0
ENDCHAR
STARTCHAR 00B5
ENCODING 181
SWIDTH 565 0
DWIDTH 11 0
BBX 9 12 1 -3
BITMAP
6300
6300
6300
6300
6300
6300
6300
6700
5980
C000
C000
C000
ENDCHAR
STARTCHAR 00B6
ENCODING 182
SWIDTH 565 0
DWIDTH 11 0
BBX 10 17 1 -4
BITMAP
3FC0
7D80
FD80
FD80
FD80
FD80
3D80
0D80
0D80
0D80
0D80
0D80
0D80
0D80
0D80
0D80
0D80
ENDCHAR
STARTCHAR 00B7
ENCODING 183
SWIDTH 257 0
DWIDTH 5 0
BBX 2 2 1 6
BITMAP
C0
C0
ENDCHAR
STARTCHAR 00B8
ENCODING 184
SWIDTH 308 0
DWIDTH 6 0
BBX 4 4 1 -4
BITMAP
20
70
10
F0
ENDCHAR
STARTCHAR 00B9
ENCODING 185
SWIDTH 360 0
DWIDTH 7 0
BBX 4 7 2 6
BITMAP
E0
60
60
60
60
60
F0
ENDCHAR
STARTCHAR 00BA
ENCODING 186
SWIDTH 411 0
DWIDTH 8 0
BBX 6 6 1 7
BITMAP
78
CC
CC
CC
CC
78
ENDCHAR
STARTCHAR 00BB
ENCODING 187
SWIDTH 360 0
DWIDTH 7 0
BBX 6 6 1 1
BITMAP
90
48
24
24
48
90
ENDCHAR
STARTCHAR 00BC
ENCODING 188
SWIDTH 925 0
DWIDTH 18 0
BBX 15 13 2 0
BITMAP
E060
6060
60C0
60C0
6180
6180
F30C
071C
062C
0C4C
0CFE
180C
180C
ENDCHAR
STARTCHAR 00BD
ENCODING 189
SWIDTH 925 0
DWIDTH 18 0
BBX 14 13 2 0
BITMAP
E060
6060
60C0
60C0
6180
6180
F378
078C
068C
0C18
0C30
1844
18FC
ENDCHAR
STARTCHAR 00BE
ENCODING 190
SWIDTH 925 0
DWIDTH 18 0
BBX 17 13 0 0
BITMAP
781800
8C1800
0C3000
303000
0C6000
8C6000
78C300
01C700
018B00
031300
033F80
060300
060300
ENDCHAR
STARTCHAR 00BF
ENCODING 191
SWIDTH 514 0
DWIDTH 10 0
BBX 8 13 1 -4
BITMAP
18
18
00
18
18
78
E0
C0
C0
C0
C3
67
3E
ENDCHAR
STARTCHAR 00C0
ENCODING 192
SWIDTH 668 0
DWIDTH 13 0
BBX 14 16 -1 0
BITMAP
0700
0380
0000
0380
0380
06C0
06C0
0CE0
0C60
0C60
1FF0
1830
3030
3018
3018
F83C
ENDCHAR
STARTCHAR 00C1
ENCODING 193
SWIDTH 668 0
DWIDTH 13 0
BBX 14 16 -1 0
BITMAP
01C0
0380
0000
0380
0380
06C0
06C0
0CE0
0C60
0C60
1FF0
1830
3030
3018
3018
F83C
ENDCHAR
STARTCHAR 00C2
ENCODING 194
SWIDTH 668 0
DWIDTH 13 0
BBX 14 16 -1 0
BITMAP
0100
06C0
0000
0380
0380
06C0
06C0
0CE0
0C60
0C60
1FF0
1830
3030
3018
3018
F83C
ENDCHAR
STARTCHAR 00C3
ENCODING 195
SWIDTH 668 0
DWIDTH 13 0
BBX 14 16 -1 0
BITMAP
0320
04C0
0000
0380
0380
06C0
06C0
0CE0
0C60
0C60
1FF0
1830
3030
3018
3018
F83C
ENDCHAR
STARTCHAR 00C4
ENCODING 196
SWIDTH 668 0
DWIDTH 13 0
BBX 14 16 -1 0
BITMAP
06C0
06C0
0000
0380
0380
06C0
06C0
0CE0
0C60
0C60
1FF0
1830
3030
3018
3018
F83C
ENDCHAR
STARTCHAR 00C5
ENCODING 197
SWIDTH 668 0
DWIDTH 13 0
BBX 14 18 -1 0
BITMAP
0180
0240
0240
0180
0000
0380
0380
06C0
06C0
0CE0
0C60
0C60
1FF0
1830
3030
3018
3018
F83C
ENDCHAR
STARTCHAR 00C6
ENCODING 198
SWIDTH 1234 0
DWIDTH 24 0
BBX 23 13 0 0
BITMAP
03FFF8
018C08
018C0C
030C04
060C20
060C20
0FFFE0
0C0C20
180C20
300C02
300C06
600C0C
F03FFC
ENDCHAR
STARTCHAR 00C7
ENCODING 199
SWIDTH 720 0
DWIDTH 14 0
BBX 12 17 1 -4
BITMAP
0F40
30C0
6060
6060
C020
C000
C000
C000
C000
6010
6020
3840
0F80
0200
0700
0100
0F00
ENDCHAR
STARTCHAR 00C8
ENCODING 200
SWIDTH 668 0
DWIDTH 13 0
BBX 12 16 1 0
BITMAP
1C00
0E00
0000
FFE0
3060
3030
3010
3100
3100
3F00
3100
3100
3010
3030
3060
FFE0
ENDCHAR
STARTCHAR 00C9
ENCODING 201
SWIDTH 668 0
DWIDTH 13 0
BBX 12 16 1 0
BITMAP
0700
0E00
0000
FFE0
3060
3030
3010
3100
3100
3F00
3100
3100
3010
3030
3060
FFE0
ENDCHAR
STARTCHAR 00CA
ENCODING 202
SWIDTH 668 0
DWIDTH 13 0
BBX 12 16 1 0
BITMAP
0400
1B00
0000
FFE0
3060
3030
3010
3100
3100
3F00
3100
3100
3010
3030
3060
FFE0
ENDCHAR
STARTCHAR 00CB
ENCODING 203
SWIDTH 668 0
DWIDTH 13 0
BBX 12 16 1 0
BITMAP
1B00
1B00
0000
FFE0
3060
3030
3010
3100
3100
3F00
3100
3100
3010
3030
3060
FFE0
ENDCHAR
STARTCHAR 00CC
ENCODING 204
SWIDTH 360 0
DWIDTH 7 0
BBX 6 16 0 0
BITMAP
70
38
00
FC
30
30
30
30
30
30
30
30
30
30
30
FC
ENDCHAR
STARTCHAR 00CD
ENCODING 205
SWIDTH 360 0
DWIDTH 7 0
BBX 6 16 0 0
BITMAP
38
70
00
FC
30
30
30
30
30
30
30
30
30
30
30
FC
ENDCHAR
STARTCHAR 00CE
ENCODING 206
SWIDTH 360 0
DWIDTH 7 0
BBX 6 16 0 0
BITMAP
10
6C
00
FC
30
30
30
30
30
30
30
30
30
30
30
FC
ENDCHAR
STARTCHAR 00CF
ENCODING 207
SWIDTH 360 0
DWIDTH 7 0
BBX 6 16 0 0
BITMAP
6C
6C
00
FC
30
30
30
30
30
30
30
30
30
30
30
FC
ENDCHAR
STARTCHAR 00D0
ENCODING 208
SWIDTH 771 0
DWIDTH 15 0
BBX 13 13 1 0
BITMAP
FF80
30E0
3030
3030
3018
3018
FE18
3018
3018
3030
3030
3060
FF80
ENDCHAR
STARTCHAR 00D1
ENCODING 209
SWIDTH 720 0
DWIDTH 14 0
BBX 14 16 0 0
BITMAP
0640
0980
0000
F8FC
3C30
3430
3630
3230
3330
3130
31B0
30B0
30F0
3070
3070
FC30
ENDCHAR
STARTCHAR 00D2
ENCODING 210
SWIDTH 771 0
DWIDTH 15 0
BBX 13 16 1 0
BITMAP
0700
0380
0000
0F80
3060
6030
6030
C018
C018
C018
C018
C018
6030
6030
3060
0F80
ENDCHAR
STARTCHAR 00D3
ENCODING 211
SWIDTH 771 0
DWIDTH 15 0
BBX 13 16 1 0
BITMAP
0380
0700
0000
0F80
3060
6030
6030
C018
C018
C018
C018
C018
6030
6030
3060
0F80
ENDCHAR
STARTCHAR 00D4
ENCODING 212
SWIDTH 771 0
DWIDTH 15 0
BBX 13 16 1 0
BITMAP
0200
0D80
0000
0F80
3060
6030
6030
C018
C018
C018
C018
C018
6030
6030
3060
0F80
ENDCHAR
STARTCHAR 00D5
ENCODING 213
SWIDTH 771 0
DWIDTH 15 0
BBX 13 16 1 0
BITMAP
0640
0980
0000
0F80
3060
6030
6030
C018
C018
C018
C018
C018
6030
6030
3060
0F80
ENDCHAR
STARTCHAR 00D6
ENCODING 214
SWIDTH 771 0
DWIDTH 15 0
BBX 13 16 1 0
BITMAP
0D80
0D80
0000
0F80
3060
6030
6030
C018
C018
C018
C018
C018
6030
6030
3060
0F80
ENDCHAR
STARTCHAR 00D7
ENCODING 215
SWIDTH 565 0
DWIDTH 11 0
BBX 8 8 2 3
BITMAP
81
C3
66
3C
18
3C
66
C3
ENDCHAR
STARTCHAR 00D8
ENCODING 216
SWIDTH 771 0
DWIDTH 15 0
BBX 13 13 1 0
BITMAP
0F88
3870
6030
6050
C098
C118
C218
C418
C818
7030
6030
3060
4F80
ENDCHAR
STARTCHAR 00D9
ENCODING 217
SWIDTH 771 0
DWIDTH 15 0
BBX 14 16 0 0
BITMAP
0700
0380
0000
FCFC
3030
3030
3030
3030
3030
3030
3030
3030
3030
3060
1860
0780
ENDCHAR
STARTCHAR 00DA
ENCODING 218
SWIDTH 771 0
DWIDTH 15 0
BBX 14 16 0 0
BITMAP
0380
0700
0000
FCFC
3030
3030
3030
3030
3030
3030
3030
3030
3030
3060
1860
0780
ENDCHAR
STARTCHAR 00DB
ENCODING 219
SWIDTH 771 0
DWIDTH 15 0
BBX 14 16 0 0
BITMAP
0100
06C0
0000
FCFC
3030
3030
3030
3030
3030
3030
3030
3030
3030
3060
1860
0780
ENDCHAR
STARTCHAR 00DC
ENCODING 220
SWIDTH 771 0
DWIDTH 15 0
BBX 14 16 0 0
BITMAP
06C0
06C0
0000
FCFC
3030
3030
3030
3030
3030
3030
3030
3030
3030
3060
1860
0780
ENDCHAR
STARTCHAR 00DD
ENCODING 221
SWIDTH 617 0
DWIDTH 12 0
BBX 13 16 0 0
BITMAP
0700
0E00
0000
F8F8
3060
30C0
18C0
1980
0F00
0F00
0600
0600
0600
0600
0600
1F80
ENDCHAR
STARTCHAR 00DE
ENCODING 222
SWIDTH 617 0
DWIDTH 12 0
BBX 11 13 1 0
BITMAP
FC00
3000
3000
3F80
30C0
3060
3060
3060
30C0
3F80
3000
3000
FC00
ENDCHAR
STARTCHAR 00DF
ENCODING 223
SWIDTH 668 0
DWIDTH 13 0
BBX 12 14 0 0
BITMAP
0F80
19C0
30C0
33C0
3600
F600
3780
33C0
30E0
3030
3030
3430
3660
F3C0
ENDCHAR
STARTCHAR 00E0
ENCODING 224
SWIDTH 565 0
DWIDTH 11 0
BBX 11 13 1 0
BITMAP
1C00
0E00
0000
0000
3F00
6180
6180
0F80
7180
C180
C180
C780
78E0
ENDCHAR
STARTCHAR 00E1
ENCODING 225
SWIDTH 565 0
DWIDTH 11 0
BBX 11 13 1 0
BITMAP
0E00
1C00
0000
0000
3F00
6180
6180
0F80
7180
C180
C180
C780
78E0
ENDCHAR
STARTCHAR 00E2
ENCODING 226
SWIDTH 565 0
DWIDTH 11 0
BBX 11 13 1 0
BITMAP
0400
1B00
0000
0000
3F00
6180
6180
0F80
7180
C180
C180
C780
78E0
ENDCHAR
STARTCHAR 00E3
ENCODING 227
SWIDTH 565 0
DWIDTH 11 0
BBX 11 13 1 0
BITMAP
1900
2600
0000
0000
3F00
6180
6180
0F80
7180
C180
C180
C780
78E0
ENDCHAR
STARTCHAR 00E4
ENCODING 228
SWIDTH 565 0
DWIDTH 11 0
BBX 11 13 1 0
BITMAP
1B00
1B00
0000
0000
3F00
6180
6180
0F80
7180
C180
C180
C780
78E0
ENDCHAR
STARTCHAR 00E5
ENCODING 229
SWIDTH 565 0
DWIDTH 11 0
BBX 11 15 1 0
BITMAP
0C00
1200
1200
0C00
0000
0000
3F00
6180
6180
0F80
7180
C180
C180
C780
78E0
ENDCHAR
STARTCHAR 00E6
ENCODING 230
SWIDTH 822 0
DWIDTH 16 0
BBX 15 9 1 0
BITMAP
3E38
61CC
6186
0FFE
7180
C180
C182
C6C6
7878
ENDCHAR
STARTCHAR 00E7
ENCODING 231
SWIDTH 514 0
DWIDTH 10 0
BBX 8 13 1 -4
BITMAP
3E
63
C1
C0
C0
C0
C1
62
3C
08
1C
04
3C
ENDCHAR
STARTCHAR 00E8
ENCODING 232
SWIDTH 514 0
DWIDTH 10 0
BBX 8 13 1 0
BITMAP
38
1C
00
00
3C
66
C3
FF
C0
C0
C1
62
3C
ENDCHAR
STARTCHAR 00E9
ENCODING 233
SWIDTH 514 0
DWIDTH 10 0
BBX 8 13 1 0
BITMAP
1C
38
00
00
3C
66
C3
FF
C0
C0
C1
62
3C
ENDCHAR
STARTCHAR 00EA
ENCODING 234
SWIDTH 514 0
DWIDTH 10 0
BBX 8 13 1 0
BITMAP
08
36
00
00
3C
66
C3
FF
C0
C0
C1
62
3C
ENDCHAR
STARTCHAR 00EB
ENCODING 235
SWIDTH 514 0
DWIDTH 10 0
BBX 8 13 1 0
BITMAP
36
36
00
00
3C
66
C3
FF
C0
C0
C1
62
3C
ENDCHAR
STARTCHAR 00EC
ENCODING 236
SWIDTH 308 0
DWIDTH 6 0
BBX 6 13 0 0
BITMAP
70
38
00
00
30
F0
30
30
30
30
30
30
FC
ENDCHAR
STARTCHAR 00ED
ENCODING 237
SWIDTH 308 0
DWIDTH 6 0
BBX 6 13 0 0
BITMAP
38
70
00
00
30
F0
30
30
30
30
30
30
FC
ENDCHAR
STARTCHAR 00EE
ENCODING 238
SWIDTH 308 0
DWIDTH 6 0
BBX 6 13 0 0
BITMAP
10
6C
00
00
30
F0
30
30
30
30
30
30
FC
ENDCHAR
STARTCHAR 00EF
ENCODING 239
SWIDTH 308 0
DWIDTH 6 0
BBX 6 13 0 0
BITMAP
6C
6C
00
00
30
F0
30
30
30
30
30
30
FC
ENDCHAR
STARTCHAR 00F0
ENCODING 240
SWIDTH 565 0
DWIDTH 11 0
BBX 9 14 1 0
BITMAP
0900
0E00
1600
0200
0300
3D00
6380
C180
C180
C180
C180
C100
6300
3E00
ENDCHAR
STARTCHAR 00F1
ENCODING 241
SWIDTH 668 0
DWIDTH 13 0
BBX 13 13 0 0
BITMAP
0640
0980
0000
0000
37C0
F860
3060
3060
3060
3060
3060
3060
FDF8
ENDCHAR
STARTCHAR 00F2
ENCODING 242
SWIDTH 565 0
DWIDTH 11 0
BBX 9 13 1 0
BITMAP
1C00
0E00
0000
0000
3E00
6300
C180
C180
C180
C180
C180
6300
3E00
ENDCHAR
STARTCHAR 00F3
ENCODING 243
SWIDTH 565 0
DWIDTH 11 0
BBX 9 13 1 0
BITMAP
0E00
1C00
0000
0000
3E00
6300
C180
C180
C180
C180
C180
6300
3E00
ENDCHAR
STARTCHAR 00F4
ENCODING 244
SWIDTH 565 0
DWIDTH 11 0
BBX 9 13 1 0
BITMAP
0800
3600
0000
0000
3E00
6300
C180
C180
C180
C180
C180
6300
3E00
ENDCHAR
STARTCHAR 00F5
ENCODING 245
SWIDTH 565 0
DWIDTH 11 0
BBX 9 13 1 0
BITMAP
1900
2600
0000
0000
3E00
6300
C180
C180
C180
C180
C180
6300
3E00
ENDCHAR
STARTCHAR 00F6
ENCODING 246
SWIDTH 565 0
DWIDTH 11 0
BBX 9 13 1 0
BITMAP
3600
3600
0000
0000
3E00
6300
C180
C180
C180
C180
C180
6300
3E00
ENDCHAR
STARTCHAR 00F7
ENCODING 247
SWIDTH 514 0
DWIDTH 10 0
BBX 10 10 0 2
BITMAP
0C00
0C00
0000
0000
FFC0
FFC0
0000
0000
0C00
0C00
ENDCHAR
STARTCHAR 00F8
ENCODING 248
SWIDTH 565 0
DWIDTH 11 0
BBX 9 9 1 0
BITMAP
3E80
6300
C380
C580
C980
D180
E180
6300
BE00
ENDCHAR
STARTCHAR 00F9
ENCODING 249
SWIDTH 668 0
DWIDTH 13 0
BBX 13 13 0 0
BITMAP
0700
0380
0000
0000
F1E0
3060
3060
3060
3060
3060
3060
30E0
1F78
ENDCHAR
STARTCHAR 00FA
ENCODING 250
SWIDTH 668 0
DWIDTH 13 0
BBX 13 13 0 0
BITMAP
0380
0700
0000
0000
F1E0
3060
3060
3060
3060
3060
3060
30E0
1F78
ENDCHAR
STARTCHAR 00FB
ENCODING 251
SWIDTH 668 0
DWIDTH 13 0
BBX 13 13 0 0
BITMAP
0200
0D80
0000
0000
F1E0
3060
3060
3060
3060
3060
3060
30E0
1F78
ENDCHAR
STARTCHAR 00FC
ENCODING 252
SWIDTH 668 0
DWIDTH 13 0
BBX 13 13 0 0
BITMAP
0D80
0D80
0000
0000
F1E0
3060
3060
3060
3060
3060
3060
30E0
1F78
ENDCHAR
STARTCHAR 00FD
ENCODING 253
SWIDTH 514 0
DWIDTH 10 0
BBX 10 17 0 -4
BITMAP
0700
0E00
0000
0000
FBC0
6080
3100
3100
1A00
1A00
0E00
0C00
0C00
0800
0800
D000
F000
ENDCHAR
STARTCHAR 00FE
ENCODING 254
SWIDTH 617 0
DWIDTH 12 0
BBX 11 18 0 -4
BITMAP
3000
F000
3000
3000
3000
3780
38C0
3060
3060
3060
3060
3060
38C0
3780
3000
3000
3000
FC00
ENDCHAR
STARTCHAR 00FF
ENCODING 255
SWIDTH 514 0
DWIDTH 10 0
BBX 10 17 0 -4
BITMAP
1B00
1B00
0000
0000
FBC0
6080
3100
3100
1A00
1A00
0E00
0C00
0C00
0800
0800
D000
F000
ENDCHAR
STARTCHAR 0100
ENCODING 256
SWIDTH 668 0
DWIDTH 13 0
BBX 14 15 -1 0
BITMAP
07C0
0000
0380
0380
06C0
06C0
0CE0
0C60
0C60
1FF0
1830
3030
3018
3018
F83C
ENDCHAR
STARTCHAR 0101
ENCODING 257
SWIDTH 565 0
DWIDTH 11 0
BBX 11 12 1 0
BITMAP
3E00
0000
0000
3F00
6180
6180
0F80
7180
C180
C180
C780
78E0
ENDCHAR
STARTCHAR 0102
ENCODING 258
SWIDTH 668 0
DWIDTH 13 0
BBX 14 16 -1 0
BITMAP
0420
03C0
0000
0380
0380
06C0
06C0
0CE0
0C60
0C60
1FF0
1830
3030
3018
3018
F83C
ENDCHAR
STARTCHAR 0103
ENCODING 259
SWIDTH 565 0
DWIDTH 11 0
BBX 11 13 1 0
BITMAP
2100
1E00
0000
0000
3F00
6180
6180
0F80
7180
C180
C180
C780
78E0
ENDCHAR
STARTCHAR 0104
ENCODING 260
SWIDTH 668 0
DWIDTH 13 0
BBX 14 16 -1 -3
BITMAP
0380
0380
06C0
06C0
0CE0
0C60
0C60
1FF0
1830
3030
3018
3018
F83C
0010
0010
0018
ENDCHAR
STARTCHAR 0105
ENCODING 261
SWIDTH 565 0
DWIDTH 11 0
BBX 11 12 1 -3
BITMAP
3F00
6180
6180
0F80
7180
C180
C180
C780
78E0
0080
0080
00C0
ENDCHAR
STARTCHAR 0106
ENCODING 262
SWIDTH 720 0
DWIDTH 14 0
BBX 12 16 1 0
BITMAP
0380
0700
0000
0F40
30C0
6060
6060
C020
C000
C000
C000
C000
6010
6020
3840
0F80
ENDCHAR
STARTCHAR 0107
ENCODING 263
SWIDTH 514 0
DWIDTH 10 0
BBX 8 13 1 0
BITMAP
1C
38
00
00
3E
63
C1
C0
C0
C0
C1
62
3C
ENDCHAR
STARTCHAR 0108
ENCODING 264
SWIDTH 720 0
DWIDTH 14 0
BBX 12 16 1 0
BITMAP
0200
0D80
0000
0F40
30C0
6060
6060
C020
C000
C000
C000
C000
6010
6020
3840
0F80
ENDCHAR
STARTCHAR 0109
ENCODING 265
SWIDTH 514 0
DWIDTH 10 0
BBX 8 13 1 0
BITMAP
08
36
00
00
3E
63
C1
C0
C0
C0
C1
62
3C
ENDCHAR
STARTCHAR 010A
ENCODING 266
SWIDTH 720 0
DWIDTH 14 0
BBX 12 16 1 0
BITMAP
0600
0600
0000
0F40
30C0
6060
6060
C020
C000
C000
C000
C000
6010
6020
3840
0F80
ENDCHAR
STARTCHAR 010B
ENCODING 267
SWIDTH 514 0
DWIDTH 10 0
BBX 8 13 1 0
BITMAP
18
18
00
00
3E
63
C1
C0
C0
C0
C1
62
3C
ENDCHAR
STARTCHAR 010C
ENCODING 268
SWIDTH 720 0
DWIDTH 14 0
BBX 12 16 1 0
BITMAP
1B00
0400
0000
0F40
30C0
6060
6060
C020
C000
C000
C000
C000
6010
6020
3840
0F80
ENDCHAR
STARTCHAR 010D
ENCODING 269
SWIDTH 514 0
DWIDTH 10 0
BBX 8 13 1 0
BITMAP
36
08
00
00
3E
63
C1
C0
C0
C0
C1
62
3C
ENDCHAR
STARTCHAR 010E
ENCODING 270
SWIDTH 771 0
DWIDTH 15 0
BBX 13 16 1 0
BITMAP
0D80
0200
0000
FF80
3060
3030
3030
3018
3018
3018
3018
3018
3030
3030
3060
FF80
ENDCHAR
STARTCHAR 010F
ENCODING 271
SWIDTH 668 0
DWIDTH 13 0
BBX 12 14 1 0
BITMAP
01B0
0790
0190
01A0
01A0
3D80
6380
C180
C180
C180
C180
C180
6380
3DE0
ENDCHAR
STARTCHAR 0110
ENCODING 272
SWIDTH 771 0
DWIDTH 15 0
BBX 13 13 1 0
BITMAP
FF80
30E0
3030
3030
3018
3018
FE18
3018
3018
3030
3030
3060
FF80
ENDCHAR
STARTCHAR 0111
ENCODING 273
SWIDTH 617 0
DWIDTH 12 0
BBX 11 14 1 0
BITMAP
0080
0380
0180
0FE0
0180
3D80
6380
C180
C180
C180
C180
C180
6380
3DE0
ENDCHAR
STARTCHAR 0112
ENCODING 274
SWIDTH 668 0
DWIDTH 13 0
BBX 12 15 1 0
BITMAP
0F80
0000
FFE0
3060
3030
3010
3100
3100
3F00
3100
3100
3010
3030
3060
FFE0
ENDCHAR
STARTCHAR 0113
ENCODING 275
SWIDTH 514 0
DWIDTH 10 0
BBX 8 12 1 0
BITMAP
3E
00
00
3C
66
C3
FF
C0
C0
C1
62
3C
ENDCHAR
STARTCHAR 0114
ENCODING 276
SWIDTH 668 0
DWIDTH 13 0
BBX 12 16 1 0
BITMAP
1080
0F00
0000
FFE0
3060
3030
3010
3100
3100
3F00
3100
3100
3010
3030
3060
FFE0
ENDCHAR
STARTCHAR 0115
ENCODING 277
SWIDTH 514 0
DWIDTH 10 0
BBX 8 13 1 0
BITMAP
42
3C
00
00
3C
66
C3
FF
C0
C0
C1
62
3C
ENDCHAR
STARTCHAR 0116
ENCODING 278
SWIDTH 668 0
DWIDTH 13 0
BBX 12 16 1 0
BITMAP
0600
0600
0000
FFE0
3060
3030
3010
3100
3100
3F00
3100
3100
3010
3030
3060
FFE0
ENDCHAR
STARTCHAR 0117
ENCODING 279
SWIDTH 514 0
DWIDTH 10 0
BBX 8 13 1 0
BITMAP
18
18
00
00
3C
66
C3
FF
C0
C0
C1
62
3C
ENDCHAR
STARTCHAR 0118
ENCODING 280
SWIDTH 668 0
DWIDTH 13 0
BBX 12 16 1 -3
BITMAP
FFE0
3060
3030
3010
3100
3100
3F00
3100
3100
3010
3030
3060
FFE0
0080
0080
00C0
ENDCHAR
STARTCHAR 0119
ENCODING 281
SWIDTH 514 0
DWIDTH 10 0
BBX 8 12 1 -3
BITMAP
3C
66
C3
FF
C0
C0
C1
62
3C
10
10
18
ENDCHAR
STARTCHAR 011A
ENCODING 282
SWIDTH 668 0
DWIDTH 13 0
BBX 12 16 1 0
BITMAP
1B00
0400
0000
FFE0
3060
3030
3010
3100
3100
3F00
3100
3100
3010
3030
3060
FFE0
ENDCHAR
STARTCHAR 011B
ENCODING 283
SWIDTH 514 0
DWIDTH 10 0
BBX 8 13 1 0
BITMAP
36
08
00
00
3C
66
C3
FF
C0
C0
C1
62
3C
ENDCHAR
STARTCHAR 011C
ENCODING 284
SWIDTH 771 0
DWIDTH 15 0
BBX 14 16 1 0
BITMAP
0400
1B00
0000
0FA0
38E0
6030
6030
C010
C000
C000
C0FC
C030
6030
6030
3870
0F90
ENDCHAR
STARTCHAR 011D
ENCODING 285
SWIDTH 514 0
DWIDTH 10 0
BBX 9 17 1 -4
BITMAP
0800
3600
0000
0000
3D80
E600
C300
C300
6700
7C00
C000
F000
3F00
4180
C180
C380
7E00
ENDCHAR
STARTCHAR 011E
ENCODING 286
SWIDTH 771 0
DWIDTH 15 0
BBX 14 16 1 0
BITMAP
0840
0780
0000
0FA0
38E0
6030
6030
C010
C000
C000
C0FC
C030
6030
6030
3870
0F90
ENDCHAR
STARTCHAR 011F
ENCODING 287
SWIDTH 514 0
DWIDTH 10 0
BBX 9 17 1 -4
BITMAP
4200
3C00
0000
0000
3D80
E600
C300
C300
6700
7C00
C000
F000
3F00
4180
C180
C380
7E00
ENDCHAR
STARTCHAR 0120
ENCODING 288
SWIDTH 771 0
DWIDTH 15 0
BBX 14 16 1 0
BITMAP
0600
0600
0000
0FA0
38E0
6030
6030
C010
C000
C000
C0FC
C030
6030
6030
3870
0F90
ENDCHAR
STARTCHAR 0121
ENCODING 289
SWIDTH 514 0
DWIDTH 10 0
BBX 9 17 1 -4
BITMAP
0C00
0C00
0000
0000
3D80
E600
C300
C300
6700
7C00
C000
F000
3F00
4180
C180
C380
7E00
ENDCHAR
STARTCHAR 0122
ENCODING 290
SWIDTH 771 0
DWIDTH 15 0
BBX 14 17 1 -4
BITMAP
0FA0
38E0
6030
6030
C010
C000
C000
C0FC
C030
6030
6030
3870
0F90
0200
0700
0100
0F00
ENDCHAR
STARTCHAR 0123
ENCODING 291
SWIDTH 514 0
DWIDTH 10 0
BBX 9 19 1 -4
BITMAP
0800
1000
1800
1800
0000
0000
3D80
E600
C300
C300
6700
7C00
C000
F000
3F00
4180
C180
C380
7E00
ENDCHAR
STARTCHAR 0124
ENCODING 292
SWIDTH 771 0
DWIDTH 15 0
BBX 13 16 1 0
BITMAP
0200
0D80
0000
FDF8
3060
3060
3060
3060
3060
3FE0
3060
3060
3060
3060
3060
FDF8
ENDCHAR
STARTCHAR 0125
ENCODING 293
SWIDTH 668 0
DWIDTH 13 0
BBX 13 17 0 0
BITMAP
0200
0D80
0000
3000
F000
3000
3000
3000
37C0
3860
3060
3060
3060
3060
3060
3060
FDF8
ENDCHAR
STARTCHAR 0126
ENCODING 294
SWIDTH 771 0
DWIDTH 15 0
BBX 13 13 1 0
BITMAP
FDF8
3060
3060
7FF0
3060
3060
3FE0
3060
3060
3060
3060
3060
FDF8
ENDCHAR
STARTCHAR 0127
ENCODING 295
SWIDTH 668 0
DWIDTH 13 0
BBX 13 14 0 0
BITMAP
3000
F000
3000
FE00
3000
33C0
3C60
3060
3060
3060
3060
3060
3060
FDF8
ENDCHAR
STARTCHAR 0128
ENCODING 296
SWIDTH 360 0
DWIDTH 7 0
BBX 6 16 0 0
BITMAP
64
98
00
FC
30
30
30
30
30
30
30
30
30
30
30
FC
ENDCHAR
STARTCHAR 0129
ENCODING 297
SWIDTH 308 0
DWIDTH 6 0
BBX 6 13 0 0
BITMAP
64
98
00
00
30
F0
30
30
30
30
30
30
FC
ENDCHAR
STARTCHAR 012A
ENCODING 298
SWIDTH 360 0
DWIDTH 7 0
BBX 6 15 0 0
BITMAP
7C
00
FC
30
30
30
30
30
30
30
30
30
30
30
FC
ENDCHAR
STARTCHAR 012B
ENCODING 299
SWIDTH 308 0
DWIDTH 6 0
BBX 6 12 0 0
BITMAP
F8
00
00
30
F0
30
30
30
30
30
30
FC
ENDCHAR
STARTCHAR 012C
ENCODING 300
SWIDTH 360 0
DWIDTH 7 0
BBX 6 16 0 0
BITMAP
84
78
00
FC
30
30
30
30
30
30
30
30
30
30
30
FC
ENDCHAR
STARTCHAR 012D
ENCODING 301
SWIDTH 308 0
DWIDTH 6 0
BBX 6 13 0 0
BITMAP
84
78
00
00
30
F0
30
30
30
30
30
30
FC
ENDCHAR
STARTCHAR 012E
ENCODING 302
SWIDTH 360 0
DWIDTH 7 0
BBX 6 16 0 -3
BITMAP
FC
30
30
30
30
30
30
30
30
30
30
30
FC
40
40
60
ENDCHAR
STARTCHAR 012F
ENCODING 303
SWIDTH 308 0
DWIDTH 6 0
BBX 6 17 0 -3
BITMAP
30
30
00
00
00
30
F0
30
30
30
30
30
30
FC
40
40
60
ENDCHAR
STARTCHAR 0130
ENCODING 304
SWIDTH 360 0
DWIDTH 7 0
BBX 6 16 0 0
BITMAP
30
30
00
FC
30
30
30
30
30
30
30
30
30
30
30
FC
ENDCHAR
STARTCHAR 0131
ENCODING 305
SWIDTH 308 0
DWIDTH 6 0
BBX 6 9 0 0
BITMAP
30
F0
30
30
30
30
30
30
FC
ENDCHAR
STARTCHAR 0132
ENCODING 306
SWIDTH 925 0
DWIDTH 18 0
BBX 16 13 1 0
BITMAP
FC3F
300C
300C
300C
300C
300C
300C
300C
330C
330C
330C
3198
FCF0
ENDCHAR
STARTCHAR 0133
ENCODING 307
SWIDTH 565 0
DWIDTH 11 0
BBX 9 18 0 -4
BITMAP
3180
3180
0000
0000
0000
3180
F780
3180
3180
3180
3180
3180
3180
FD80
0180
0180
1900
1E00
ENDCHAR
STARTCHAR 0134
ENCODING 308
SWIDTH 565 0
DWIDTH 11 0
BBX 11 16 0 0
BITMAP
0080
0360
0000
07E0
0180
0180
0180
0180
0180
0180
0180
C180
C180
C180
6300
3E00
ENDCHAR
STARTCHAR 0135
ENCODING 309
SWIDTH 308 0
DWIDTH 6 0
BBX 6 17 -2 -4
BITMAP
10
6C
00
00
0C
3C
0C
0C
0C
0C
0C
0C
0C
0C
0C
CC
F0
ENDCHAR
STARTCHAR 0136
ENCODING 310
SWIDTH 720 0
DWIDTH 14 0
BBX 13 17 1 -4
BITMAP
FCF8
3060
3040
3080
3100
3200
3600
3B00
3180
30C0
30C0
3060
FCF8
0000
0700
0100
0700
ENDCHAR
STARTCHAR 0137
ENCODING 311
SWIDTH 617 0
DWIDTH 12 0
BBX 12 18 0 -4
BITMAP
3000
F000
3000
3000
3000
31F0
3180
3300
3600
3E00
3300
3180
30C0
FDF0
0000
0700
0100
0700
ENDCHAR
STARTCHAR 0138
ENCODING 312
SWIDTH 617 0
DWIDTH 12 0
BBX 12 9 0 0
BITMAP
33E0
F180
3700
3E00
3E00
3300
3180
30C0
FDF0
ENDCHAR
STARTCHAR 0139
ENCODING 313
SWIDTH 565 0
DWIDTH 11 0
BBX 10 16 1 0
BITMAP
1C00
3800
0000
FC00
3000
3000
3000
3000
3000
3000
3000
3000
3040
3080
3180
FF80
ENDCHAR
STARTCHAR 013A
ENCODING 314
SWIDTH 308 0
DWIDTH 6 0
BBX 6 17 0 0
BITMAP
38
70
00
30
F0
30
30
30
30
30
30
30
30
30
30
30
FC
ENDCHAR
STARTCHAR 013B
ENCODING 315
SWIDTH 565 0
DWIDTH 11 0
BBX 10 17 1 -4
BITMAP
FC00
3000
3000
3000
3000
3000
3000
3000
3000
3040
3080
3180
FF80
0000
0E00
0200
0E00
ENDCHAR
STARTCHAR 013C
ENCODING 316
SWIDTH 308 0
DWIDTH 6 0
BBX 6 18 0 -4
BITMAP
30
F0
30
30
30
30
30
30
30
30
30
30
30
FC
00
70
10
70
ENDCHAR
STARTCHAR 013D
ENCODING 317
SWIDTH 565 0
DWIDTH 11 0
BBX 10 13 1 0
BITMAP
FD80
3080
3080
3100
3100
3000
3000
3000
3000
3040
3080
3180
FF80
ENDCHAR
STARTCHAR 013E
ENCODING 318
SWIDTH 360 0
DWIDTH 7 0
BBX 7 14 0 0
BITMAP
36
F2
32
34
34
30
30
30
30
30
30
30
30
FC
ENDCHAR
STARTCHAR 013F
ENCODING 319
SWIDTH 565 0
DWIDTH 11 0
BBX 10 13 1 0
BITMAP
FC00
3000
3000
3000
3000
3600
3600
3000
3000
3040
3080
3180
FF80
ENDCHAR
STARTCHAR 0140
ENCODING 320
SWIDTH 308 0
DWIDTH 6 0
BBX 7 14 0 0
BITMAP
30
F0
30
30
30
30
36
36
30
30
30
30
30
FC
ENDCHAR
STARTCHAR 0141
ENCODING 321
SWIDTH 565 0
DWIDTH 11 0
BBX 11 13 1 0
BITMAP
FC00
3000
3000
3200
3400
3800
3000
7000
B000
3060
3040
30C0
FFC0
ENDCHAR
STARTCHAR 0142
ENCODING 322
SWIDTH 308 0
DWIDTH 6 0
BBX 6 14 0 0
BITMAP
30
F0
30
30
30
34
38
70
B0
30
30
30
30
FC
ENDCHAR
STARTCHAR 0143
ENCODING 323
SWIDTH 720 0
DWIDTH 14 0
BBX 14 16 0 0
BITMAP
01C0
0380
0000
F8FC
3C30
3430
3630
3230
3330
3130
31B0
30B0
30F0
3070
3070
FC30
ENDCHAR
STARTCHAR 0144
ENCODING 324
SWIDTH 668 0
DWIDTH 13 0
BBX 13 13 0 0
BITMAP
0700
0E00
0000
0000
37C0
F860
3060
3060
3060
3060
3060
3060
FDF8
ENDCHAR
STARTCHAR 0145
ENCODING 325
SWIDTH 720 0
DWIDTH 14 0
BBX 14 17 0 -4
BITMAP
F8FC
3C30
3430
3630
3230
3330
3130
31B0
30B0
30F0
3070
3070
FC30
0000
0700
0100
0700
ENDCHAR
STARTCHAR 0146
ENCODING 326
SWIDTH 668 0
DWIDTH 13 0
BBX 13 13 0 -4
BITMAP
37C0
F860
3060
3060
3060
3060
3060
3060
FDF8
0000
0700
0100
0700
ENDCHAR
STARTCHAR 0147
ENCODING 327
SWIDTH 720 0
DWIDTH 14 0
BBX 14 16 0 0
BITMAP
06C0
0100
0000
F8FC
3C30
3430
3630
3230
3330
3130
31B0
30B0
30F0
3070
3070
FC30
ENDCHAR
STARTCHAR 0148
ENCODING 328
SWIDTH 668 0
DWIDTH 13 0
BBX 13 13 0 0
BITMAP
0D80
0200
0000
0000
37C0
F860
3060
3060
3060
3060
3060
3060
FDF8
ENDCHAR
STARTCHAR 0149
ENCODING 329
SWIDTH 720 0
DWIDTH 14 0
BBX 15 13 -1 0
BITMAP
E000
E000
2000
4000
8DF0
3E18
0C18
0C18
0C18
0C18
0C18
0C18
3F7E
ENDCHAR
STARTCHAR 014A
ENCODING 330
SWIDTH 771 0
DWIDTH 15 0
BBX 13 13 1 0
BITMAP
F3C0
3460
3830
3038
3018
3018
3018
3018
3018
3318
3310
3330
FDE0
ENDCHAR
STARTCHAR 014B
ENCODING 331
SWIDTH 617 0
DWIDTH 12 0
BBX 11 13 0 -4
BITMAP
37C0
F860
3060
3060
3060
3060
3060
3060
FC60
0060
0060
0660
0780
ENDCHAR
STARTCHAR 014C
ENCODING 332
SWIDTH 771 0
DWIDTH 15 0
BBX 13 15 1 0
BITMAP
0F80
0000
0F80
3060
6030
6030
C018
C018
C018
C018
C018
6030
6030
3060
0F80
ENDCHAR
STARTCHAR 014D
ENCODING 333
SWIDTH 565 0
DWIDTH 11 0
BBX 9 12 1 0
BITMAP
3E00
0000
0000
3E00
6300
C180
C180
C180
C180
C180
6300
3E00
ENDCHAR
STARTCHAR 014E
ENCODING 334
SWIDTH 771 0
DWIDTH 15 0
BBX 13 16 1 0
BITMAP
0840
0780
0000
0F80
3060
6030
6030
C018
C018
C018
C018
C018
6030
6030
3060
0F80
ENDCHAR
STARTCHAR 014F
ENCODING 335
SWIDTH 565 0
DWIDTH 11 0
BBX 9 13 1 0
BITMAP
2100
1E00
0000
0000
3E00
6300
C180
C180
C180
C180
C180
6300
3E00
ENDCHAR
STARTCHAR 0150
ENCODING 336
SWIDTH 771 0
DWIDTH 15 0
BBX 13 17 1 0
BITMAP
0280
0780
0500
0000
0F80
3060
6030
6030
C018
C018
C018
C018
C018
6030
6030
3060
0F80
ENDCHAR
STARTCHAR 0151
ENCODING 337
SWIDTH 565 0
DWIDTH 11 0
BBX 9 13 1 0
BITMAP
0A00
1E00
1400
0000
3E00
6300
C180
C180
C180
C180
C180
6300
3E00
ENDCHAR
STARTCHAR 0152
ENCODING 338
SWIDTH 1234 0
DWIDTH 24 0
BBX 22 13 1 0
BITMAP
0F9FF0
305830
603818
601808
C01840
C01840
C01FC0
C01840
C01840
601804
60380C
305818
0F9FF8
ENDCHAR
STARTCHAR 0153
ENCODING 339
SWIDTH 874 0
DWIDTH 17 0
BBX 15 9 1 0
BITMAP
3E38
634C
C186
C1FE
C180
C180
C182
6346
3E38
ENDCHAR
STARTCHAR 0154
ENCODING 340
SWIDTH 720 0
DWIDTH 14 0
BBX 13 16 1 0
BITMAP
0700
0E00
0000
FFC0
3060
3030
3030
3030
3060
3FC0
3300
3180
30C0
30C0
3060
FC38
ENDCHAR
STARTCHAR 0155
ENCODING 341
SWIDTH 411 0
DWIDTH 8 0
BBX 8 13 0 0
BITMAP
1C
38
00
00
37
F9
30
30
30
30
30
30
FC
ENDCHAR
STARTCHAR 0156
ENCODING 342
SWIDTH 720 0
DWIDTH 14 0
BBX 13 17 1 -4
BITMAP
FFC0
3060
3030
3030
3030
3060
3FC0
3300
3180
30C0
30C0
3060
FC38
0000
0700
0100
0700
ENDCHAR
STARTCHAR 0157
ENCODING 343
SWIDTH 411 0
DWIDTH 8 0
BBX 8 13 0 -4
BITMAP
37
F9
30
30
30
30
30
30
FC
00
38
08
38
ENDCHAR
STARTCHAR 0158
ENCODING 344
SWIDTH 720 0
DWIDTH 14 0
BBX 13 16 1 0
BITMAP
0D80
0200
0000
FFC0
3060
3030
3030
3030
3060
3FC0
3300
3180
30C0
30C0
3060
FC38
ENDCHAR
STARTCHAR 0159
ENCODING 345
SWIDTH 411 0
DWIDTH 8 0
BBX 8 13 0 0
BITMAP
36
08
00
00
37
F9
30
30
30
30
30
30
FC
ENDCHAR
STARTCHAR 015A
ENCODING 346
SWIDTH 668 0
DWIDTH 13 0
BBX 11 16 1 0
BITMAP
0700
0E00
0000
3E80
6380
C0C0
C0C0
E040
7E00
1F80
01E0
8060
C060
E060
70C0
5F80
ENDCHAR
STARTCHAR 015B
ENCODING 347
SWIDTH 514 0
DWIDTH 10 0
BBX 8 13 1 0
BITMAP
1C
38
00
00
7A
C6
C2
F0
3E
07
83
E3
5E
ENDCHAR
STARTCHAR 015C
ENCODING 348
SWIDTH 668 0
DWIDTH 13 0
BBX 11 16 1 0
BITMAP
0400
1B00
0000
3E80
6380
C0C0
C0C0
E040
7E00
1F80
01E0
8060
C060
E060
70C0
5F80
ENDCHAR
STARTCHAR 015D
ENCODING 349
SWIDTH 514 0
DWIDTH 10 0
BBX 8 13 1 0
BITMAP
10
6C
00
00
7A
C6
C2
F0
3E
07
83
E3
5E
ENDCHAR
STARTCHAR 015E
ENCODING 350
SWIDTH 668 0
DWIDTH 13 0
BBX 11 17 1 -4
BITMAP
3E80
6380
C0C0
C0C0
E040
7E00
1F80
01E0
8060
C060
E060
70C0
5F80
0400
0E00
0200
1E00
ENDCHAR
STARTCHAR 015F
ENCODING 351
SWIDTH 514 0
DWIDTH 10 0
BBX 8 13 1 -4
BITMAP
7A
C6
C2
F0
3E
07
83
E3
5E
08
1C
04
3C
ENDCHAR
STARTCHAR 0160
ENCODING 352
SWIDTH 668 0
DWIDTH 13 0
BBX 11 16 1 0
BITMAP
3600
0800
0000
3E80
6380
C0C0
C0C0
E040
7E00
1F80
01E0
8060
C060
E060
70C0
5F80
ENDCHAR
STARTCHAR 0161
ENCODING 353
SWIDTH 514 0
DWIDTH 10 0
BBX 8 13 1 0
BITMAP
36
08
00
00
7A
C6
C2
F0
3E
07
83
E3
5E
ENDCHAR
STARTCHAR 0162
ENCODING 354
SWIDTH 617 0
DWIDTH 12 0
BBX 12 18 0 -5
BITMAP
7FE0
6660
C630
8610
0600
0600
0600
0600
0600
0600
0600
0600
1F80
0000
0600
0600
0200
0400
ENDCHAR
STARTCHAR 0163
ENCODING 355
SWIDTH 360 0
DWIDTH 7 0
BBX 8 17 0 -5
BITMAP
10
10
30
FE
30
30
30
30
30
30
31
1E
00
18
18
08
10
ENDCHAR
STARTCHAR 0164
ENCODING 356
SWIDTH 617 0
DWIDTH 12 0
BBX 12 16 0 0
BITMAP
0D80
0200
0000
7FE0
6660
C630
8610
0600
0600
0600
0600
0600
0600
0600
0600
1F80
ENDCHAR
STARTCHAR 0165
ENCODING 357
SWIDTH 360 0
DWIDTH 7 0
BBX 8 14 0 0
BITMAP
03
01
11
12
30
FE
30
30
30
30
30
30
31
1E
ENDCHAR
STARTCHAR 0166
ENCODING 358
SWIDTH 617 0
DWIDTH 12 0
BBX 12 13 0 0
BITMAP
7FE0
6660
C630
8610
0600
0600
7FE0
0600
0600
0600
0600
0600
1F80
ENDCHAR
STARTCHAR 0167
ENCODING 359
SWIDTH 360 0
DWIDTH 7 0
BBX 8 12 0 0
BITMAP
10
30
70
FE
30
30
FE
30
30
30
31
1E
ENDCHAR
STARTCHAR 0168
ENCODING 360
SWIDTH 771 0
DWIDTH 15 0
BBX 14 16 0 0
BITMAP
0640
0980
0000
FCFC
3030
3030
3030
3030
3030
3030
3030
3030
3030
3060
1860
0780
ENDCHAR
STARTCHAR 0169
ENCODING 361
SWIDTH 668 0
DWIDTH 13 0
BBX 13 13 0 0
BITMAP
0640
0980
0000
0000
F1E0
3060
3060
3060
3060
3060
3060
30E0
1F78
ENDCHAR
STARTCHAR 016A
ENCODING 362
SWIDTH 771 0
DWIDTH 15 0
BBX 14 15 0 0
BITMAP
07C0
0000
FCFC
3030
3030
3030
3030
3030
3030
3030
3030
3030
3060
1860
0780
ENDCHAR
STARTCHAR 016B
ENCODING 363
SWIDTH 668 0
DWIDTH 13 0
BBX 13 12 0 0
BITMAP
0F80
0000
0000
F1E0
3060
3060
3060
3060
3060
3060
30E0
1F78
ENDCHAR
STARTCHAR 016C
ENCODING 364
SWIDTH 771 0
DWIDTH 15 0
BBX 14 16 0 0
BITMAP
0840
0780
0000
FCFC
3030
3030
3030
3030
3030
3030
3030
3030
3030
3060
1860
0780
ENDCHAR
STARTCHAR 016D
ENCODING 365
SWIDTH 668 0
DWIDTH 13 0
BBX 13 13 0 0
BITMAP
0840
0780
0000
0000
F1E0
3060
3060
3060
3060
3060
3060
30E0
1F78
ENDCHAR
STARTCHAR 016E
ENCODING 366
SWIDTH 771 0
DWIDTH 15 0
BBX 14 18 0 0
BITMAP
0300
0480
0480
0300
0000
FCFC
3030
3030
3030
3030
3030
3030
3030
3030
3030
3060
1860
0780
ENDCHAR
STARTCHAR 016F
ENCODING 367
SWIDTH 668 0
DWIDTH 13 0
BBX 13 15 0 0
BITMAP
0300
0480
0480
0300
0000
0000
F1E0
3060
3060
3060
3060
3060
3060
30E0
1F78
ENDCHAR
STARTCHAR 0170
ENCODING 368
SWIDTH 771 0
DWIDTH 15 0
BBX 14 17 0 0
BITMAP
0140
03C0
0280
0000
FCFC
3030
3030
3030
3030
3030
3030
3030
3030
3030
3060
1860
0780
ENDCHAR
STARTCHAR 0171
ENCODING 369
SWIDTH 668 0
DWIDTH 13 0
BBX 13 13 0 0
BITMAP
0280
0780
0500
0000
F1E0
3060
3060
3060
3060
3060
3060
30E0
1F78
ENDCHAR
STARTCHAR 0172
ENCODING 370
SWIDTH 771 0
DWIDTH 15 0
BBX 14 16 0 -3
BITMAP
FCFC
3030
3030
3030
3030
3030
3030
3030
3030
3030
3060
1860
0780
0400
0400
0600
ENDCHAR
STARTCHAR 0173
ENCODING 371
SWIDTH 668 0
DWIDTH 13 0
BBX 13 12 0 -3
BITMAP
F1E0
3060
3060
3060
3060
3060
3060
30E0
1F78
0040
0040
0060
ENDCHAR
STARTCHAR 0174
ENCODING 372
SWIDTH 925 0
DWIDTH 18 0
BBX 19 16 0 0
BITMAP
004000
01B000
000000
FFF3E0
60C180
30C180
30C180
30E300
18E300
18E300
19B300
0DB600
0DB600
059600
071C00
071C00
ENDCHAR
STARTCHAR 0175
ENCODING 373
SWIDTH 771 0
DWIDTH 15 0
BBX 15 13 -1 0
BITMAP
0100
06C0
0000
0000
FFFE
738C
3188
3188
19D0
1AD0
1AD0
0C60
0C60
ENDCHAR
STARTCHAR 0176
ENCODING 374
SWIDTH 617 0
DWIDTH 12 0
BBX 13 16 0 0
BITMAP
0200
0D80
0000
F8F8
3060
30C0
18C0
1980
0F00
0F00
0600
0600
0600
0600
0600
1F80
ENDCHAR
STARTCHAR 0177
ENCODING 375
SWIDTH 514 0
DWIDTH 10 0
BBX 10 17 0 -4
BITMAP
0400
1B00
0000
0000
FBC0
6080
3100
3100
1A00
1A00
0E00
0C00
0C00
0800
0800
D000
F000
ENDCHAR
STARTCHAR 0178
ENCODING 376
SWIDTH 617 0
DWIDTH 12 0
BBX 13 16 0 0
BITMAP
0D80
0D80
0000
F8F8
3060
30C0
18C0
1980
0F00
0F00
0600
0600
0600
0600
0600
1F80
ENDCHAR
STARTCHAR 0179
ENCODING 377
SWIDTH 617 0
DWIDTH 12 0
BBX 12 16 0 0
BITMAP
0380
0700
0000
3FE0
60C0
40C0
8180
0300
0600
0E00
0C00
1800
3010
6020
6060
FFE0
ENDCHAR
STARTCHAR 017A
ENCODING 378
SWIDTH 462 0
DWIDTH 9 0
BBX 9 13 0 0
BITMAP
0E00
1C00
0000
0000
7F80
C300
8600
0C00
1800
3800
3080
6180
FF00
ENDCHAR
STARTCHAR 017B
ENCODING 379
SWIDTH 617 0
DWIDTH 12 0
BBX 12 16 0 0
BITMAP
0300
0300
0000
3FE0
60C0
40C0
8180
0300
0600
0E00
0C00
1800
3010
6020
6060
FFE0
ENDCHAR
STARTCHAR 017C
ENCODING 380
SWIDTH 462 0
DWIDTH 9 0
BBX 9 13 0 0
BITMAP
0C00
0C00
0000
0000
7F80
C300
8600
0C00
1800
3800
3080
6180
FF00
ENDCHAR
STARTCHAR 017D
ENCODING 381
SWIDTH 617 0
DWIDTH 12 0
BBX 12 16 0 0
BITMAP
0D80
0200
0000
3FE0
60C0
40C0
8180
0300
0600
0E00
0C00
1800
3010
6020
6060
FFE0
ENDCHAR
STARTCHAR 017E
ENCODING 382
SWIDTH 462 0
DWIDTH 9 0
BBX 9 13 0 0
BITMAP
1B00
0400
0000
0000
7F80
C300
8600
0C00
1800
3800
3080
6180
FF00
ENDCHAR
STARTCHAR 017F
ENCODING 383
SWIDTH 308 0
DWIDTH 6 0
BBX 8 14 0 0
BITMAP
0F
13
30
30
30
30
30
30
30
30
30
30
30
FC
ENDCHAR
STARTCHAR 0192
ENCODING 402
SWIDTH 617 0
DWIDTH 12 0
BBX 13 17 -1 -3
BITMAP
0078
0198
0180
0380
0300
0FC0
0300
0600
0600
0600
0600
0C00
0C00
0C00
1800
9800
F000
ENDCHAR
STARTCHAR 01FA
ENCODING 506
SWIDTH 668 0
DWIDTH 13 0
BBX 14 19 -1 0
BITMAP
0380
0700
0000
0300
0480
0480
0380
0380
06C0
06C0
0CE0
0C60
0C60
1FF0
1830
3030
3018
3018
F83C
ENDCHAR
STARTCHAR 01FB
ENCODING 507
SWIDTH 565 0
DWIDTH 11 0
BBX 11 18 1 0
BITMAP
0700
0E00
0000
0C00
1200
1200
0C00
0000
0000
3F00
6180
6180
0F80
7180
C180
C180
C780
78E0
ENDCHAR
STARTCHAR 01FC
ENCODING 508
SWIDTH 1234 0
DWIDTH 24 0
BBX 23 16 0 0
BITMAP
000E00
001C00
000000
03FFF8
018C08
018C0C
030C04
060C20
060C20
0FFFE0
0C0C20
180C20
300C02
300C06
600C0C
F03FFC
ENDCHAR
STARTCHAR 01FD
ENCODING 509
SWIDTH 822 0
DWIDTH 16 0
BBX 15 13 1 0
BITMAP
01C0
0380
0000
0000
3E38
61CC
6186
0FFE
7180
C180
C182
C6C6
7878
ENDCHAR
STARTCHAR 01FE
ENCODING 510
SWIDTH 771 0
DWIDTH 15 0
BBX 13 16 1 0
BITMAP
01C0
0380
0000
0F88
3870
6030
6050
C098
C118
C218
C418
C818
7030
6030
3060
4F80
ENDCHAR
STARTCHAR 01FF
ENCODING 511
SWIDTH 565 0
DWIDTH 11 0
BBX 9 13 1 0
BITMAP
0E00
1C00
0000
0000
3E80
6300
C380
C580
C980
D180
E180
6300
BE00
ENDCHAR
STARTCHAR 02C6
ENCODING 710
SWIDTH 411 0
DWIDTH 8 0
BBX 5 2 1 11
BITMAP
20
D8
ENDCHAR
STARTCHAR 02C7
ENCODING 711
SWIDTH 411 0
DWIDTH 8 0
BBX 5 2 1 11
BITMAP
D8
20
ENDCHAR
STARTCHAR 02C9
ENCODING 713
SWIDTH 411 0
DWIDTH 8 0
BBX 5 1 1 11
BITMAP
F8
ENDCHAR
STARTCHAR 02D8
ENCODING 728
SWIDTH 462 0
DWIDTH 9 0
BBX 6 2 1 11
BITMAP
84
78
ENDCHAR
STARTCHAR 02D9
ENCODING 729
SWIDTH 257 0
DWIDTH 5 0
BBX 2 2 1 11
BITMAP
C0
C0
ENDCHAR
STARTCHAR 02DA
ENCODING 730
SWIDTH 308 0
DWIDTH 6 0
BBX 4 4 1 10
BITMAP
60
90
90
60
ENDCHAR
STARTCHAR 02DB
ENCODING 731
SWIDTH 308 0
DWIDTH 6 0
BBX 2 3 1 -3
BITMAP
80
80
C0
ENDCHAR
STARTCHAR 02DC
ENCODING 732
SWIDTH 411 0
DWIDTH 8 0
BBX 6 2 1 11
BITMAP
64
98
ENDCHAR
STARTCHAR 02DD
ENCODING 733
SWIDTH 360 0
DWIDTH 7 0
BBX 4 3 2 10
BITMAP
50
F0
A0
ENDCHAR
STARTCHAR 037E
ENCODING 894
SWIDTH 308 0
DWIDTH 6 0
BBX 3 12 2 -3
BITMAP
C0
C0
00
00
00
00
00
E0
E0
20
40
80
ENDCHAR
STARTCHAR 0384
ENCODING 900
SWIDTH 411 0
DWIDTH 8 0
BBX 2 3 3 10
BITMAP
C0
C0
80
ENDCHAR
STARTCHAR 0385
ENCODING 901
SWIDTH 411 0
DWIDTH 8 0
BBX 8 3 0 10
BITMAP
18
DB
D3
ENDCHAR
STARTCHAR 0386
ENCODING 902
SWIDTH 668 0
DWIDTH 13 0
BBX 14 13 -1 0
BITMAP
3380
3380
26C0
06C0
0CE0
0C60
0C60
1FF0
1830
3030
3018
3018
F83C
ENDCHAR
STARTCHAR 0387
ENCODING 903
SWIDTH 308 0
DWIDTH 6 0
BBX 2 2 2 7
BITMAP
C0
C0
ENDCHAR
STARTCHAR 0388
ENCODING 904
SWIDTH 771 0
DWIDTH 15 0
BBX 15 13 -1 0
BITMAP
DFFC
C60C
8606
0602
0620
0620
07E0
0620
0620
0602
0606
060C
1FFC
ENDCHAR
STARTCHAR 0389
ENCODING 905
SWIDTH 822 0
DWIDTH 16 0
BBX 16 13 -1 0
BITMAP
DFBF
C60C
860C
060C
060C
060C
07FC
060C
060C
060C
060C
060C
1FBF
ENDCHAR
STARTCHAR 038A
ENCODING 906
SWIDTH 411 0
DWIDTH 8 0
BBX 8 13 -1 0
BITMAP
FF
CC
8C
0C
0C
0C
0C
0C
0C
0C
0C
0C
3F
ENDCHAR
STARTCHAR 038C
ENCODING 908
SWIDTH 771 0
DWIDTH 15 0
BBX 15 13 -1 0
BITMAP
C3E0
CC18
980C
180C
3006
3006
3006
3006
3006
180C
180C
0C18
03E0
ENDCHAR
STARTCHAR 038E
ENCODING 910
SWIDTH 720 0
DWIDTH 14 0
BBX 16 13 -1 0
BITMAP
DF1F
C60C
8618
0318
0330
01E0
01E0
00C0
00C0
00C0
00C0
00C0
03F0
ENDCHAR
STARTCHAR 038F
ENCODING 911
SWIDTH 771 0
DWIDTH 15 0
BBX 16 13 -1 0
BITMAP
C3F0
CC18
980C
3006
3006
3006
3006
3006
180C
4E19
6363
3146
3F7E
ENDCHAR
STARTCHAR 0390
ENCODING 912
SWIDTH 308 0
DWIDTH 6 0
BBX 8 14 -1 0
BITMAP
18
DB
D3
00
00
18
78
18
18
18
18
18
18
0E
ENDCHAR
STARTCHAR 0391
ENCODING 913
SWIDTH 668 0
DWIDTH 13 0
BBX 14 13 -1 0
BITMAP
0380
0380
06C0
06C0
0CE0
0C60
0C60
1FF0
1830
3030
3018
3018
F83C
ENDCHAR
STARTCHAR 0392
ENCODING 914
SWIDTH 720 0
DWIDTH 14 0
BBX 13 13 0 0
BITMAP
FFC0
3060
3030
3030
3030
3060
3F80
3070
3018
3018
3018
3030
FFE0
ENDCHAR
STARTCHAR 0393
ENCODING 915
SWIDTH 565 0
DWIDTH 11 0
BBX 10 13 1 0
BITMAP
FF80
3080
30C0
3040
3000
3000
3000
3000
3000
3000
3000
3000
FC00
ENDCHAR
STARTCHAR 0394
ENCODING 916
SWIDTH 565 0
DWIDTH 11 0
BBX 11 13 0 0
BITMAP
0400
0E00
0E00
1B00
1B00
1B00
3180
3180
60C0
60C0
60C0
C060
FFE0
ENDCHAR
STARTCHAR 0395
ENCODING 917
SWIDTH 668 0
DWIDTH 13 0
BBX 12 13 1 0
BITMAP
FFE0
3060
3030
3010
3100
3100
3F00
3100
3100
3010
3030
3060
FFE0
ENDCHAR
STARTCHAR 0396
ENCODING 918
SWIDTH 617 0
DWIDTH 12 0
BBX 12 13 0 0
BITMAP
3FE0
60C0
40C0
8180
0300
0600
0E00
0C00
1800
3010
6020
6060
FFE0
ENDCHAR
STARTCHAR 0397
ENCODING 919
SWIDTH 771 0
DWIDTH 15 0
BBX 13 13 1 0
BITMAP
FDF8
3060
3060
3060
3060
3060
3FE0
3060
3060
3060
3060
3060
FDF8
ENDCHAR
STARTCHAR 0398
ENCODING 920
SWIDTH 771 0
DWIDTH 15 0
BBX 13 13 1 0
BITMAP
0F80
3060
6030
6030
C898
C898
CF98
C898
C898
6030
6030
3060
0F80
ENDCHAR
STARTCHAR 0399
ENCODING 921
SWIDTH 360 0
DWIDTH 7 0
BBX 6 13 0 0
BITMAP
FC
30
30
30
30
30
30
30
30
30
30
30
FC
ENDCHAR
STARTCHAR 039A
ENCODING 922
SWIDTH 720 0
DWIDTH 14 0
BBX 13 13 1 0
BITMAP
FCF8
3060
3040
3080
3100
3200
3600
3B00
3180
30C0
30C0
3060
FCF8
ENDCHAR
STARTCHAR 039B
ENCODING 923
SWIDTH 668 0
DWIDTH 13 0
BBX 13 13 0 0
BITMAP
0700
0700
0D80
0D80
0D80
18C0
18C0
18C0
30E0
3060
3060
6070
F0F8
ENDCHAR
STARTCHAR 039C
ENCODING 924
SWIDTH 874 0
DWIDTH 17 0
BBX 17 13 0 0
BITMAP
FC1F80
3C1E00
3C1E00
341600
363600
363600
362600
336600
336600
336600
31C600
31C600
FDDF80
ENDCHAR
STARTCHAR 039D
ENCODING 925
SWIDTH 720 0
DWIDTH 14 0
BBX 14 13 0 0
BITMAP
F8FC
3C30
3430
3630
3230
3330
3130
31B0
30B0
30F0
3070
3070
FC30
ENDCHAR
STARTCHAR 039E
ENCODING 926
SWIDTH 720 0
DWIDTH 14 0
BBX 14 13 0 0
BITMAP
3FF0
3030
6018
4008
0840
0840
0FC0
0840
0840
8004
C00C
6018
7FF8
ENDCHAR
STARTCHAR 039F
ENCODING 927
SWIDTH 771 0
DWIDTH 15 0
BBX 13 13 1 0
BITMAP
0F80
3060
6030
6030
C018
C018
C018
C018
C018
6030
6030
3060
0F80
ENDCHAR
STARTCHAR 03A0
ENCODING 928
SWIDTH 771 0
DWIDTH 15 0
BBX 13 13 1 0
BITMAP
FFF8
3060
3060
3060
3060
3060
3060
3060
3060
3060
3060
3060
FDF8
ENDCHAR
STARTCHAR 03A1
ENCODING 929
SWIDTH 617 0
DWIDTH 12 0
BBX 11 13 1 0
BITMAP
FF80
30C0
3060
3060
3060
30C0
3F80
3000
3000
3000
3000
3000
FC00
ENDCHAR
STARTCHAR 03A3
ENCODING 931
SWIDTH 617 0
DWIDTH 12 0
BBX 11 13 1 0
BITMAP
FF80
6080
60C0
3040
1800
0C00
1800
1800
3000
3020
6060
6040
FFC0
ENDCHAR
STARTCHAR 03A4
ENCODING 932
SWIDTH 617 0
DWIDTH 12 0
BBX 12 13 0 0
BITMAP
7FE0
6660
C630
8610
0600
0600
0600
0600
0600
0600
0600
0600
1F80
ENDCHAR
STARTCHAR 03A5
ENCODING 933
SWIDTH 617 0
DWIDTH 12 0
BBX 13 13 0 0
BITMAP
F8F8
3060
30C0
18C0
1980
0F00
0F00
0600
0600
0600
0600
0600
1F80
ENDCHAR
STARTCHAR 03A6
ENCODING 934
SWIDTH 771 0
DWIDTH 15 0
BBX 14 13 1 0
BITMAP
0FC0
0300
1FE0
6318
C30C
C30C
C30C
C30C
C30C
6318
1FF0
0300
0FC0
ENDCHAR
STARTCHAR 03A7
ENCODING 935
SWIDTH 720 0
DWIDTH 14 0
BBX 14 13 0 0
BITMAP
7C7C
3030
1860
0C60
06C0
0780
0300
0780
0CC0
1C60
1860
3030
F87C
ENDCHAR
STARTCHAR 03A8
ENCODING 936
SWIDTH 874 0
DWIDTH 17 0
BBX 16 13 1 0
BITMAP
F7EF
318C
318C
318C
318C
318C
318C
1998
0FF0
0180
0180
0180
07E0
ENDCHAR
STARTCHAR 03A9
ENCODING 937
SWIDTH 771 0
DWIDTH 15 0
BBX 15 13 0 0
BITMAP
07E0
1830
3018
600C
600C
600C
600C
600C
3018
9C32
C6C6
628C
7EFC
ENDCHAR
STARTCHAR 03AA
ENCODING 938
SWIDTH 360 0
DWIDTH 7 0
BBX 6 16 0 0
BITMAP
6C
6C
00
FC
30
30
30
30
30
30
30
30
30
30
30
FC
ENDCHAR
STARTCHAR 03AB
ENCODING 939
SWIDTH 617 0
DWIDTH 12 0
BBX 13 16 0 0
BITMAP
0D80
0D80
0000
F8F8
3060
30C0
18C0
1980
0F00
0F00
0600
0600
0600
0600
0600
1F80
ENDCHAR
STARTCHAR 03AC
ENCODING 940
SWIDTH 617 0
DWIDTH 12 0
BBX 11 14 1 0
BITMAP
1800
1800
1000
0000
0000
3C80
6380
C180
C180
C180
C180
C180
6380
3DE0
ENDCHAR
STARTCHAR 03AD
ENCODING 941
SWIDTH 462 0
DWIDTH 9 0
BBX 8 14 1 0
BITMAP
18
18
10
00
00
7C
C6
C6
E0
38
C0
C1
C2
7C
ENDCHAR
STARTCHAR 03AE
ENCODING 942
SWIDTH 668 0
DWIDTH 13 0
BBX 11 18 0 -4
BITMAP
0600
0600
0400
0000
0000
33C0
FC60
3060
3060
3060
3060
3060
3060
FC60
0060
0060
0060
0060
ENDCHAR
STARTCHAR 03AF
ENCODING 943
SWIDTH 308 0
DWIDTH 6 0
BBX 6 14 0 0
BITMAP
30
30
20
00
00
30
F0
30
30
30
30
30
30
1C
ENDCHAR
STARTCHAR 03B0
ENCODING 944
SWIDTH 617 0
DWIDTH 12 0
BBX 11 14 0 0
BITMAP
0300
1B60
1A60
0000
0000
F1E0
3060
3060
3060
3060
3060
3060
18C0
0F80
ENDCHAR
STARTCHAR 03B1
ENCODING 945
SWIDTH 617 0
DWIDTH 12 0
BBX 11 9 1 0
BITMAP
3C80
6380
C180
C180
C180
C180
C180
6380
3DE0
ENDCHAR
STARTCHAR 03B2
ENCODING 946
SWIDTH 617 0
DWIDTH 12 0
BBX 9 18 2 -4
BITMAP
3C00
6600
C300
C300
C300
C600
DE00
C300
C180
C180
C180
C180
E300
DE00
C000
C000
C000
C000
ENDCHAR
STARTCHAR 03B3
ENCODING 947
SWIDTH 514 0
DWIDTH 10 0
BBX 10 13 0 -4
BITMAP
E0C0
70C0
31C0
3180
1980
1B00
0F00
0E00
0600
0600
0600
0E00
0600
ENDCHAR
STARTCHAR 03B4
ENCODING 948
SWIDTH 565 0
DWIDTH 11 0
BBX 9 14 1 0
BITMAP
1E00
2300
4300
4000
2000
1C00
6300
4180
C180
C180
C180
C180
6300
3E00
ENDCHAR
STARTCHAR 03B5
ENCODING 949
SWIDTH 462 0
DWIDTH 9 0
BBX 8 9 1 0
BITMAP
7C
C6
C6
E0
38
C0
C1
C2
7C
ENDCHAR
STARTCHAR 03B6
ENCODING 950
SWIDTH 360 0
DWIDTH 7 0
BBX 7 18 1 -4
BITMAP
C2
FC
08
10
20
60
60
C0
C0
C0
C0
F0
3C
0E
06
06
44
78
ENDCHAR
STARTCHAR 03B7
ENCODING 951
SWIDTH 668 0
DWIDTH 13 0
BBX 11 13 0 -4
BITMAP
33C0
FC60
3060
3060
3060
3060
3060
3060
FC60
0060
0060
0060
0060
ENDCHAR
STARTCHAR 03B8
ENCODING 952
SWIDTH 565 0
DWIDTH 11 0
BBX 9 14 1 0
BITMAP
3E00
6300
6300
C180
C180
C180
FF80
C180
C180
C180
C180
6300
6300
3E00
ENDCHAR
STARTCHAR 03B9
ENCODING 953
SWIDTH 308 0
DWIDTH 6 0
BBX 6 9 0 0
BITMAP
30
F0
30
30
30
30
30
30
1C
ENDCHAR
STARTCHAR 03BA
ENCODING 954
SWIDTH 617 0
DWIDTH 12 0
BBX 12 9 0 0
BITMAP
33E0
F180
3300
3600
3E00
3300
3180
30C0
FC70
ENDCHAR
STARTCHAR 03BB
ENCODING 955
SWIDTH 565 0
DWIDTH 11 0
BBX 11 14 0 0
BITMAP
0800
3800
0C00
0C00
0600
0E00
0E00
1B00
1B00
1980
3180
31C0
60C0
F1E0
ENDCHAR
STARTCHAR 03BC
ENCODING 956
SWIDTH 668 0
DWIDTH 13 0
BBX 13 13 0 -4
BITMAP
F1E0
3060
3060
3060
3060
3060
3060
30E0
3F78
3000
3000
3000
3000
ENDCHAR
STARTCHAR 03BD
ENCODING 957
SWIDTH 514 0
DWIDTH 10 0
BBX 9 9 0 0
BITMAP
E180
3180
3180
3100
1B00
1B00
1A00
0E00
0E00
ENDCHAR
STARTCHAR 03BE
ENCODING 958
SWIDTH 411 0
DWIDTH 8 0
BBX 8 18 0 -4
BITMAP
3E
73
60
60
10
1E
63
C0
C0
C0
E0
78
3E
07
03
03
66
3C
ENDCHAR
STARTCHAR 03BF
ENCODING 959
SWIDTH 565 0
DWIDTH 11 0
BBX 9 9 1 0
BITMAP
3E00
6300
C180
C180
C180
C180
C180
6300
3E00
ENDCHAR
STARTCHAR 03C0
ENCODING 960
SWIDTH 668 0
DWIDTH 13 0
BBX 13 9 0 0
BITMAP
FFF8
3060
3060
3060
3060
3060
3060
3060
FC38
ENDCHAR
STARTCHAR 03C1
ENCODING 961
SWIDTH 565 0
DWIDTH 11 0
BBX 9 13 1 -4
BITMAP
3E00
6300
C180
C180
C180
C180
C180
E300
DE00
C000
C000
C000
C000
ENDCHAR
STARTCHAR 03C2
ENCODING 962
SWIDTH 462 0
DWIDTH 9 0
BBX 9 13 0 -4
BITMAP
1E00
6380
4180
C000
C000
E000
7000
3E00
0F00
0300
0300
6600
7C00
ENDCHAR
STARTCHAR 03C3
ENCODING 963
SWIDTH 565 0
DWIDTH 11 0
BBX 10 9 1 0
BITMAP
3FC0
6300
C180
C180
C180
C180
C180
6300
3E00
ENDCHAR
STARTCHAR 03C4
ENCODING 964
SWIDTH 411 0
DWIDTH 8 0
BBX 8 9 0 0
BITMAP
FF
18
18
18
18
18
18
19
0E
ENDCHAR
STARTCHAR 03C5
ENCODING 965
SWIDTH 617 0
DWIDTH 12 0
BBX 11 9 0 0
BITMAP
F1E0
3060
3060
3060
3060
3060
3060
18C0
0F80
ENDCHAR
STARTCHAR 03C6
ENCODING 966
SWIDTH 668 0
DWIDTH 13 0
BBX 12 13 0 -4
BITMAP
33C0
6660
C630
C630
C630
C630
C630
6660
3FC0
0600
0600
0600
0600
ENDCHAR
STARTCHAR 03C7
ENCODING 967
SWIDTH 565 0
DWIDTH 11 0
BBX 11 9 0 0
BITMAP
E1E0
3180
1B00
0E00
0E00
0F00
1B00
3180
F0E0
ENDCHAR
STARTCHAR 03C8
ENCODING 968
SWIDTH 771 0
DWIDTH 15 0
BBX 13 13 0 -4
BITMAP
E338
6318
6318
6318
6318
6318
6318
3330
1FE0
0300
0300
0300
0300
ENDCHAR
STARTCHAR 03C9
ENCODING 969
SWIDTH 668 0
DWIDTH 13 0
BBX 12 9 0 0
BITMAP
39C0
6060
C030
C030
C630
C630
C630
6660
39C0
ENDCHAR
STARTCHAR 03CA
ENCODING 970
SWIDTH 308 0
DWIDTH 6 0
BBX 6 13 0 0
BITMAP
6C
6C
00
00
30
F0
30
30
30
30
30
30
1C
ENDCHAR
STARTCHAR 03CB
ENCODING 971
SWIDTH 617 0
DWIDTH 12 0
BBX 11 13 0 0
BITMAP
0D80
0D80
0000
0000
F1E0
3060
3060
3060
3060
3060
3060
18C0
0F80
ENDCHAR
STARTCHAR 03CC
ENCODING 972
SWIDTH 565 0
DWIDTH 11 0
BBX 9 14 1 0
BITMAP
1800
1800
1000
0000
0000
3E00
6300
C180
C180
C180
C180
C180
6300
3E00
ENDCHAR
STARTCHAR 03CD
ENCODING 973
SWIDTH 617 0
DWIDTH 12 0
BBX 11 14 0 0
BITMAP
0300
0300
0200
0000
0000
F1E0
3060
3060
3060
3060
3060
3060
18C0
0F80
ENDCHAR
STARTCHAR 03CE
ENCODING 974
SWIDTH 668 0
DWIDTH 13 0
BBX 12 14 0 0
BITMAP
0600
0600
0400
0000
0000
39C0
6060
C030
C030
C630
C630
C630
6660
39C0
ENDCHAR
STARTCHAR 0401
ENCODING 1025
SWIDTH 668 0
DWIDTH 13 0
BBX 12 16 1 0
BITMAP
1B00
1B00
0000
FFE0
3060
3030
3010
3100
3100
3F00
3100
3100
3010
3030
3060
FFE0
ENDCHAR
STARTCHAR 0402
ENCODING 1026
SWIDTH 720 0
DWIDTH 14 0
BBX 14 15 0 -2
BITMAP
7FE0
6660
C630
8610
06F0
0718
060C
060C
060C
060C
060C
060C
1F88
0118
00F0
ENDCHAR
STARTCHAR 0403
ENCODING 1027
SWIDTH 565 0
DWIDTH 11 0
BBX 10 16 1 0
BITMAP
0380
0700
0000
FF80
3080
30C0
3040
3000
3000
3000
3000
3000
3000
3000
3000
FC00
ENDCHAR
STARTCHAR 0404
ENCODING 1028
SWIDTH 720 0
DWIDTH 14 0
BBX 12 13 1 0
BITMAP
0FA0
3860
6030
6010
C000
C000
FF00
C000
C000
6010
6020
38C0
0F80
ENDCHAR
STARTCHAR 0405
ENCODING 1029
SWIDTH 668 0
DWIDTH 13 0
BBX 11 13 1 0
BITMAP
3E80
6380
C0C0
C0C0
E040
7E00
1F80
01E0
8060
C060
E060
70C0
5F80
ENDCHAR
STARTCHAR 0406
ENCODING 1030
SWIDTH 360 0
DWIDTH 7 0
BBX 6 13 0 0
BITMAP
FC
30
30
30
30
30
30
30
30
30
30
30
FC
ENDCHAR
STARTCHAR 0407
ENCODING 1031
SWIDTH 360 0
DWIDTH 7 0
BBX 6 16 0 0
BITMAP
6C
6C
00
FC
30
30
30
30
30
30
30
30
30
30
30
FC
ENDCHAR
STARTCHAR 0408
ENCODING 1032
SWIDTH 565 0
DWIDTH 11 0
BBX 11 13 0 0
BITMAP
07E0
0180
0180
0180
0180
0180
0180
0180
C180
C180
C180
6300
3E00
ENDCHAR
STARTCHAR 0409
ENCODING 1033
SWIDTH 874 0
DWIDTH 17 0
BBX 17 13 0 0
BITMAP
1FF000
06C000
06C000
0CC000
0CC000
1CC000
18FE00
18C300
30C180
30C180
30C180
60C300
F3FE00
ENDCHAR
STARTCHAR 040A
ENCODING 1034
SWIDTH 925 0
DWIDTH 18 0
BBX 17 13 1 0
BITMAP
FDF800
306000
306000
306000
306000
306000
3FFE00
306300
306180
306180
306180
306300
FDFE00
ENDCHAR
STARTCHAR 040B
ENCODING 1035
SWIDTH 771 0
DWIDTH 15 0
BBX 16 13 0 0
BITMAP
7FE0
6660
C630
8610
0678
078C
060C
060C
060C
060C
060C
060C
1FBF
ENDCHAR
STARTCHAR 040C
ENCODING 1036
SWIDTH 720 0
DWIDTH 14 0
BBX 13 16 1 0
BITMAP
0700
0E00
0000
FCF8
3060
3040
3080
3100
3200
3600
3B00
3180
30C0
30C0
3060
FCF8
ENDCHAR
STARTCHAR 040E
ENCODING 1038
SWIDTH 668 0
DWIDTH 13 0
BBX 13 17 0 0
BITMAP
18C0
18C0
0F80
0000
F878
7030
3060
1860
0CC0
0CC0
06C0
0380
0380
0300
0300
3700
3E00
ENDCHAR
STARTCHAR 040F
ENCODING 1039
SWIDTH 771 0
DWIDTH 15 0
BBX 14 16 1 -3
BITMAP
FCFC
3030
3030
3030
3030
3030
3030
3030
3030
3030
3030
3030
FFFC
0300
0100
0100
ENDCHAR
STARTCHAR 0410
ENCODING 1040
SWIDTH 668 0
DWIDTH 13 0
BBX 14 13 -1 0
BITMAP
0380
0380
06C0
06C0
0CE0
0C60
0C60
1FF0
1830
3030
3018
3018
F83C
ENDCHAR
STARTCHAR 0411
ENCODING 1041
SWIDTH 720 0
DWIDTH 14 0
BBX 13 13 0 0
BITMAP
FFE0
3060
3030
3010
3000
3000
3FE0
3030
3018
3018
3018
3030
FFE0
ENDCHAR
STARTCHAR 0412
ENCODING 1042
SWIDTH 720 0
DWIDTH 14 0
BBX 13 13 0 0
BITMAP
FFC0
3060
3030
3030
3030
3060
3F80
3070
3018
3018
3018
3030
FFE0
ENDCHAR
STARTCHAR 0413
ENCODING 1043
SWIDTH 565 0
DWIDTH 11 0
BBX 10 13 1 0
BITMAP
FF80
3080
30C0
3040
3000
3000
3000
3000
3000
3000
3000
3000
FC00
ENDCHAR
STARTCHAR 0414
ENCODING 1044
SWIDTH 720 0
DWIDTH 14 0
BBX 16 16 -1 -3
BITMAP
0FFE
0318
0318
0618
0618
0618
0C18
0C18
0C18
1818
1818
1818
7FFE
6006
C003
8001
ENDCHAR
STARTCHAR 0415
ENCODING 1045
SWIDTH 668 0
DWIDTH 13 0
BBX 12 13 1 0
BITMAP
FFE0
3060
3030
3010
3100
3100
3F00
3100
3100
3010
3030
3060
FFE0
ENDCHAR
STARTCHAR 0416
ENCODING 1046
SWIDTH 1028 0
DWIDTH 20 0
BBX 20 13 0 0
BITMAP
79F9E0
186180
0C6300
066600
036C00
03FC00
06F600
066600
0C6300
186180
3060C0
3060C0
F9F9F0
ENDCHAR
STARTCHAR 0417
ENCODING 1047
SWIDTH 668 0
DWIDTH 13 0
BBX 11 13 1 0
BITMAP
5F00
6180
C0C0
80C0
00C0
0180
0F00
00C0
0060
8060
4060
30C0
1F80
ENDCHAR
STARTCHAR 0418
ENCODING 1048
SWIDTH 771 0
DWIDTH 15 0
BBX 13 13 1 0
BITMAP
FDF8
30E0
30E0
31E0
3160
3360
3260
3660
3460
3C60
3860
3860
FDF8
ENDCHAR
STARTCHAR 0419
ENCODING 1049
SWIDTH 771 0
DWIDTH 15 0
BBX 13 17 1 0
BITMAP
0D80
0D80
0700
0000
FDF8
30E0
30E0
31E0
3160
3360
3260
3660
3460
3C60
3860
3860
FDF8
ENDCHAR
STARTCHAR 041A
ENCODING 1050
SWIDTH 720 0
DWIDTH 14 0
BBX 13 13 1 0
BITMAP
FCF8
3060
3040
3080
3100
3200
3600
3B00
3180
30C0
30C0
3060
FCF8
ENDCHAR
STARTCHAR 041B
ENCODING 1051
SWIDTH 668 0
DWIDTH 13 0
BBX 13 13 0 0
BITMAP
0700
0700
0D80
0D80
0D80
18C0
18C0
18C0
30E0
3060
3060
6070
F0F8
ENDCHAR
STARTCHAR 041C
ENCODING 1052
SWIDTH 874 0
DWIDTH 17 0
BBX 17 13 0 0
BITMAP
FC1F80
3C1E00
3C1E00
341600
363600
363600
362600
336600
336600
336600
31C600
31C600
FDDF80
ENDCHAR
STARTCHAR 041D
ENCODING 1053
SWIDTH 771 0
DWIDTH 15 0
BBX 13 13 1 0
BITMAP
FDF8
3060
3060
3060
3060
3060
3FE0
3060
3060
3060
3060
3060
FDF8
ENDCHAR
STARTCHAR 041E
ENCODING 1054
SWIDTH 771 0
DWIDTH 15 0
BBX 13 13 1 0
BITMAP
0F80
3060
6030
6030
C018
C018
C018
C018
C018
6030
6030
3060
0F80
ENDCHAR
STARTCHAR 041F
ENCODING 1055
SWIDTH 771 0
DWIDTH 15 0
BBX 13 13 1 0
BITMAP
FFF8
3060
3060
3060
3060
3060
3060
3060
3060
3060
3060
3060
FDF8
ENDCHAR
STARTCHAR 0420
ENCODING 1056
SWIDTH 617 0
DWIDTH 12 0
BBX 11 13 1 0
BITMAP
FF80
30C0
3060
3060
3060
30C0
3F80
3000
3000
3000
3000
3000
FC00
ENDCHAR
STARTCHAR 0421
ENCODING 1057
SWIDTH 720 0
DWIDTH 14 0
BBX 12 13 1 0
BITMAP
0F40
30C0
6060
6060
C020
C000
C000
C000
C000
6010
6020
3840
0F80
ENDCHAR
STARTCHAR 0422
ENCODING 1058
SWIDTH 617 0
DWIDTH 12 0
BBX 12 13 0 0
BITMAP
7FE0
6660
C630
8610
0600
0600
0600
0600
0600
0600
0600
0600
1F80
ENDCHAR
STARTCHAR 0423
ENCODING 1059
SWIDTH 668 0
DWIDTH 13 0
BBX 13 13 0 0
BITMAP
F878
7030
3060
1860
0CC0
0CC0
06C0
0380
0380
0300
0300
3700
3E00
ENDCHAR
STARTCHAR 0424
ENCODING 1060
SWIDTH 771 0
DWIDTH 15 0
BBX 14 13 0 0
BITMAP
0FC0
0300
0300
3FF0
6318
C30C
C30C
C30C
6318
3FF0
0300
0300
0FC0
ENDCHAR
STARTCHAR 0425
ENCODING 1061
SWIDTH 720 0
DWIDTH 14 0
BBX 14 13 0 0
BITMAP
7C7C
3030
1860
0C60
06C0
0780
0300
0780
0CC0
1C60
1860
3030
F87C
ENDCHAR
STARTCHAR 0426
ENCODING 1062
SWIDTH 771 0
DWIDTH 15 0
BBX 15 16 0 -3
BITMAP
FCFC
3030
3030
3030
3030
3030
3030
3030
3030
3030
3030
3030
FFFC
000C
0006
0002
ENDCHAR
STARTCHAR 0427
ENCODING 1063
SWIDTH 668 0
DWIDTH 13 0
BBX 12 13 0 0
BITMAP
FFF0
30C0
30C0
30C0
30C0
30C0
1FC0
00C0
00C0
00C0
00C0
00C0
03F0
ENDCHAR
STARTCHAR 0428
ENCODING 1064
SWIDTH 1028 0
DWIDTH 20 0
BBX 20 13 0 0
BITMAP
FDFBF0
3060C0
3060C0
3060C0
3060C0
3060C0
3060C0
3060C0
3060C0
3060C0
3060C0
3060C0
FFFFF0
ENDCHAR
STARTCHAR 0429
ENCODING 1065
SWIDTH 1028 0
DWIDTH 20 0
BBX 21 16 0 -3
BITMAP
FDFBF0
3060C0
3060C0
3060C0
3060C0
3060C0
3060C0
3060C0
3060C0
3060C0
3060C0
3060C0
FFFFF0
000030
000018
000008
ENDCHAR
STARTCHAR 042A
ENCODING 1066
SWIDTH 720 0
DWIDTH 14 0
BBX 14 13 0 0
BITMAP
7F80
6600
C600
8600
0600
0600
07F0
0618
060C
060C
060C
0618
1FF0
ENDCHAR
STARTCHAR 042B
ENCODING 1067
SWIDTH 925 0
DWIDTH 18 0
BBX 18 13 0 0
BITMAP
FC0FC0
300300
300300
300300
300300
300300
3FC300
306300
303300
303300
303300
306300
FFCFC0
ENDCHAR
STARTCHAR 042C
ENCODING 1068
SWIDTH 617 0
DWIDTH 12 0
BBX 12 13 0 0
BITMAP
FC00
3000
3000
3000
3000
3000
3FC0
3060
3030
3030
3030
3060
FFC0
ENDCHAR
STARTCHAR 042D
ENCODING 1069
SWIDTH 720 0
DWIDTH 14 0
BBX 12 13 1 0
BITMAP
5F80
60C0
C060
8020
0030
0030
0FF0
0030
0030
8060
4060
30C0
1F80
ENDCHAR
STARTCHAR 042E
ENCODING 1070
SWIDTH 1131 0
DWIDTH 22 0
BBX 20 13 1 0
BITMAP
FC1F00
3060C0
30C060
30C060
318030
318030
3F8030
318030
318030
30C060
30C060
3060C0
FC1F00
ENDCHAR
STARTCHAR 042F
ENCODING 1071
SWIDTH 720 0
DWIDTH 14 0
BBX 13 13 0 0
BITMAP
1FF8
3060
6060
6060
6060
3060
1FE0
0660
0C60
1860
1860
3060
E1F8
ENDCHAR
STARTCHAR 0430
ENCODING 1072
SWIDTH 565 0
DWIDTH 11 0
BBX 11 9 1 0
BITMAP
3F00
6180
6180
0F80
7180
C180
C180
C780
78E0
ENDCHAR
STARTCHAR 0431
ENCODING 1073
SWIDTH 565 0
DWIDTH 11 0
BBX 9 14 1 0
BITMAP
0080
3F80
7F00
4000
C000
9E00
E300
C180
C180
C180
C180
C180
6300
3E00
ENDCHAR
STARTCHAR 0432
ENCODING 1074
SWIDTH 565 0
DWIDTH 11 0
BBX 10 9 0 0
BITMAP
FF80
30C0
30C0
3080
3F00
30C0
30C0
30C0
FF80
ENDCHAR
STARTCHAR 0433
ENCODING 1075
SWIDTH 462 0
DWIDTH 9 0
BBX 9 9 0 0
BITMAP
FF00
3180
3080
3000
3000
3000
3000
3000
FC00
ENDCHAR
STARTCHAR 0434
ENCODING 1076
SWIDTH 617 0
DWIDTH 12 0
BBX 12 11 0 -2
BITMAP
1FF0
0CC0
0CC0
0CC0
0CC0
18C0
18C0
38C0
7FE0
C030
8010
ENDCHAR
STARTCHAR 0435
ENCODING 1077
SWIDTH 514 0
DWIDTH 10 0
BBX 8 9 1 0
BITMAP
3C
66
C3
FF
C0
C0
C1
62
3C
ENDCHAR
STARTCHAR 0436
ENCODING 1078
SWIDTH 874 0
DWIDTH 17 0
BBX 18 9 0 0
BITMAP
F3F3C0
30C300
1CCE00
0EDC00
07F800
0DEC00
18C600
30C300
FBF7C0
ENDCHAR
STARTCHAR 0437
ENCODING 1079
SWIDTH 462 0
DWIDTH 9 0
BBX 7 9 1 0
BITMAP
7C
C6
86
0C
38
06
86
46
3C
ENDCHAR
STARTCHAR 0438
ENCODING 1080
SWIDTH 617 0
DWIDTH 12 0
BBX 12 9 0 0
BITMAP
FDF0
30C0
31C0
32C0
34C0
38C0
38C0
30C0
FBF0
ENDCHAR
STARTCHAR 0439
ENCODING 1081
SWIDTH 617 0
DWIDTH 12 0
BBX 12 14 0 0
BITMAP
1980
1980
0F00
0000
0000
FDF0
30C0
31C0
32C0
34C0
38C0
38C0
30C0
FBF0
ENDCHAR
STARTCHAR 043A
ENCODING 1082
SWIDTH 617 0
DWIDTH 12 0
BBX 12 9 0 0
BITMAP
FFE0
3380
3600
3C00
3E00
3300
3180
30C0
FDF0
ENDCHAR
STARTCHAR 043B
ENCODING 1083
SWIDTH 514 0
DWIDTH 10 0
BBX 11 9 0 0
BITMAP
0E00
0E00
1B00
1B00
1980
3180
3180
60C0
F1E0
ENDCHAR
STARTCHAR 043C
ENCODING 1084
SWIDTH 720 0
DWIDTH 14 0
BBX 13 9 0 0
BITMAP
F8F8
38E0
3CE0
3DE0
3D60
3560
3760
3660
F678
ENDCHAR
STARTCHAR 043D
ENCODING 1085
SWIDTH 617 0
DWIDTH 12 0
BBX 12 9 0 0
BITMAP
FFF0
30C0
30C0
30C0
3FC0
30C0
30C0
30C0
FFF0
ENDCHAR
STARTCHAR 043E
ENCODING 1086
SWIDTH 565 0
DWIDTH 11 0
BBX 9 9 1 0
BITMAP
3E00
6300
C180
C180
C180
C180
C180
6300
3E00
ENDCHAR
STARTCHAR 043F
ENCODING 1087
SWIDTH 617 0
DWIDTH 12 0
BBX 12 9 0 0
BITMAP
FFF0
30C0
30C0
30C0
30C0
30C0
30C0
30C0
FFF0
ENDCHAR
STARTCHAR 0440
ENCODING 1088
SWIDTH 617 0
DWIDTH 12 0
BBX 11 13 0 -4
BITMAP
3780
F8C0
3060
3060
3060
3060
3060
38C0
3780
3000
3000
3000
FC00
ENDCHAR
STARTCHAR 0441
ENCODING 1089
SWIDTH 514 0
DWIDTH 10 0
BBX 8 9 1 0
BITMAP
3E
63
C1
C0
C0
C0
C1
62
3C
ENDCHAR
STARTCHAR 0442
ENCODING 1090
SWIDTH 514 0
DWIDTH 10 0
BBX 10 9 0 0
BITMAP
7F80
CCC0
8C40
0C00
0C00
0C00
0C00
0C00
3F00
ENDCHAR
STARTCHAR 0443
ENCODING 1091
SWIDTH 514 0
DWIDTH 10 0
BBX 10 13 0 -4
BITMAP
FBC0
6080
3100
3100
1A00
1A00
0E00
0C00
0C00
0800
0800
D000
F000
ENDCHAR
STARTCHAR 0444
ENCODING 1092
SWIDTH 822 0
DWIDTH 16 0
BBX 16 18 0 -4
BITMAP
0180
0780
0180
0180
0180
3DBC
63C6
C183
C183
C183
C183
C183
63C6
3DBC
0180
0180
0180
07E0
ENDCHAR
STARTCHAR 0445
ENCODING 1093
SWIDTH 565 0
DWIDTH 11 0
BBX 11 9 0 0
BITMAP
F9E0
30C0
1980
0F00
0600
0F00
1980
30C0
F3E0
ENDCHAR
STARTCHAR 0446
ENCODING 1094
SWIDTH 668 0
DWIDTH 13 0
BBX 14 11 0 -2
BITMAP
FDF8
3060
3060
3060
3060
3060
3060
3060
FFF8
001C
0004
ENDCHAR
STARTCHAR 0447
ENCODING 1095
SWIDTH 565 0
DWIDTH 11 0
BBX 11 9 0 0
BITMAP
F7E0
6180
6180
6180
3F80
0180
0180
0180
07E0
ENDCHAR
STARTCHAR 0448
ENCODING 1096
SWIDTH 925 0
DWIDTH 18 0
BBX 18 9 0 0
BITMAP
F9E7C0
30C300
30C300
30C300
30C300
30C300
30C300
30C300
FFFFC0
ENDCHAR
STARTCHAR 0449
ENCODING 1097
SWIDTH 925 0
DWIDTH 18 0
BBX 19 11 0 -2
BITMAP
F9E7C0
30C300
30C300
30C300
30C300
30C300
30C300
30C300
FFFFC0
000040
000020
ENDCHAR
STARTCHAR 044A
ENCODING 1098
SWIDTH 617 0
DWIDTH 12 0
BBX 11 9 0 0
BITMAP
7F00
CC00
8C00
0C00
0FC0
0C60
0C60
0C60
3FC0
ENDCHAR
STARTCHAR 044B
ENCODING 1099
SWIDTH 771 0
DWIDTH 15 0
BBX 15 9 0 0
BITMAP
FC7E
3018
3018
3018
3F18
3198
3198
3198
FF7E
ENDCHAR
STARTCHAR 044C
ENCODING 1100
SWIDTH 514 0
DWIDTH 10 0
BBX 9 9 0 0
BITMAP
FC00
3000
3000
3000
3F00
3180
3180
3180
FF00
ENDCHAR
STARTCHAR 044D
ENCODING 1101
SWIDTH 514 0
DWIDTH 10 0
BBX 8 9 1 0
BITMAP
7C
C6
83
03
1F
03
83
46
3C
ENDCHAR
STARTCHAR 044E
ENCODING 1102
SWIDTH 822 0
DWIDTH 16 0
BBX 15 9 0 0
BITMAP
FCF8
318C
3306
3306
3F06
3306
3306
318C
FCF8
ENDCHAR
STARTCHAR 044F
ENCODING 1103
SWIDTH 565 0
DWIDTH 11 0
BBX 11 9 0 0
BITMAP
3FE0
6180
6180
6180
3F80
1980
1980
3180
FFE0
ENDCHAR
STARTCHAR 0451
ENCODING 1105
SWIDTH 514 0
DWIDTH 10 0
BBX 8 13 1 0
BITMAP
36
36
00
00
3C
66
C3
FF
C0
C0
C1
62
3C
ENDCHAR
STARTCHAR 0452
ENCODING 1106
SWIDTH 565 0
DWIDTH 11 0
BBX 10 16 0 -2
BITMAP
3000
F000
3000
FF00
3000
3700
3980
30C0
30C0
30C0
30C0
30C0
30C0
FD80
0180
0F00
ENDCHAR
STARTCHAR 0453
ENCODING 1107
SWIDTH 462 0
DWIDTH 9 0
BBX 9 13 0 0
BITMAP
1C00
3800
0000
0000
FF00
3180
3080
3000
3000
3000
3000
3000
FC00
ENDCHAR
STARTCHAR 0454
ENCODING 1108
SWIDTH 514 0
DWIDTH 10 0
BBX 8 9 1 0
BITMAP
3E
63
C1
C0
F8
C0
C1
62
3C
ENDCHAR
STARTCHAR 0455
ENCODING 1109
SWIDTH 514 0
DWIDTH 10 0
BBX 8 9 1 0
BITMAP
7A
C6
C2
F0
3E
07
83
E3
5E
ENDCHAR
STARTCHAR 0456
ENCODING 1110
SWIDTH 308 0
DWIDTH 6 0
BBX 6 14 0 0
BITMAP
30
30
00
00
00
30
F0
30
30
30
30
30
30
FC
ENDCHAR
STARTCHAR 0457
ENCODING 1111
SWIDTH 308 0
DWIDTH 6 0
BBX 6 13 0 0
BITMAP
6C
6C
00
00
30
F0
30
30
30
30
30
30
FC
ENDCHAR
STARTCHAR 0458
ENCODING 1112
SWIDTH 308 0
DWIDTH 6 0
BBX 6 18 -2 -4
BITMAP
0C
0C
00
00
00
0C
3C
0C
0C
0C
0C
0C
0C
0C
0C
0C
CC
F0
ENDCHAR
STARTCHAR 0459
ENCODING 1113
SWIDTH 720 0
DWIDTH 14 0
BBX 13 9 0 0
BITMAP
FFC0
3300
3300
3300
73F0
6318
6318
6318
FFF0
ENDCHAR
STARTCHAR 045A
ENCODING 1114
SWIDTH 822 0
DWIDTH 16 0
BBX 15 9 0 0
BITMAP
FFF0
30C0
30C0
30C0
3FFC
30C6
30C6
30C6
FFFC
ENDCHAR
STARTCHAR 045B
ENCODING 1115
SWIDTH 668 0
DWIDTH 13 0
BBX 13 14 0 0
BITMAP
3000
F000
3000
FF80
3000
33C0
3C60
3060
3060
3060
3060
3060
3060
FDF8
ENDCHAR
STARTCHAR 045C
ENCODING 1116
SWIDTH 617 0
DWIDTH 12 0
BBX 12 13 0 0
BITMAP
0E00
1C00
0000
0000
FFE0
3380
3600
3C00
3E00
3300
3180
30C0
FDF0
ENDCHAR
STARTCHAR 045E
ENCODING 1118
SWIDTH 514 0
DWIDTH 10 0
BBX 10 18 0 -4
BITMAP
3300
3300
1E00
0000
0000
FBC0
6080
3100
3100
1900
1A00
0E00
0C00
0400
0800
0800
D800
F000
ENDCHAR
STARTCHAR 045F
ENCODING 1119
SWIDTH 617 0
DWIDTH 12 0
BBX 12 12 0 -3
BITMAP
FFF0
30C0
30C0
30C0
30C0
30C0
30C0
30C0
FFF0
0E00
0400
0400
ENDCHAR
STARTCHAR 0490
ENCODING 1168
SWIDTH 462 0
DWIDTH 9 0
BBX 8 16 1 0
BITMAP
01
03
06
FE
30
30
30
30
30
30
30
30
30
30
30
FC
ENDCHAR
STARTCHAR 0491
ENCODING 1169
SWIDTH 411 0
DWIDTH 8 0
BBX 8 11 0 0
BITMAP
01
03
FE
30
30
30
30
30
30
30
FC
ENDCHAR
STARTCHAR 1E80
ENCODING 7808
SWIDTH 925 0
DWIDTH 18 0
BBX 19 16 0 0
BITMAP
01C000
00E000
000000
FFF3E0
60C180
30C180
30C180
30E300
18E300
18E300
19B300
0DB600
0DB600
059600
071C00
071C00
ENDCHAR
STARTCHAR 1E81
ENCODING 7809
SWIDTH 771 0
DWIDTH 15 0
BBX 15 13 -1 0
BITMAP
0380
01C0
0000
0000
FFFE
738C
3188
3188
19D0
1AD0
1AD0
0C60
0C60
ENDCHAR
STARTCHAR 1E82
ENCODING 7810
SWIDTH 925 0
DWIDTH 18 0
BBX 19 16 0 0
BITMAP
00E000
01C000
000000
FFF3E0
60C180
30C180
30C180
30E300
18E300
18E300
19B300
0DB600
0DB600
059600
071C00
071C00
ENDCHAR
STARTCHAR 1E83
ENCODING 7811
SWIDTH 771 0
DWIDTH 15 0
BBX 15 13 -1 0
BITMAP
01C0
0380
0000
0000
FFFE
738C
3188
3188
19D0
1AD0
1AD0
0C60
0C60
ENDCHAR
STARTCHAR 1E84
ENCODING 7812
SWIDTH 925 0
DWIDTH 18 0
BBX 19 16 0 0
BITMAP
036000
036000
000000
FFF3E0
60C180
30C180
30C180
30E300
18E300
18E300
19B300
0DB600
0DB600
059600
071C00
071C00
ENDCHAR
STARTCHAR 1E85
ENCODING 7813
SWIDTH 771 0
DWIDTH 15 0
BBX 15 13 -1 0
BITMAP
06C0
06C0
0000
0000
FFFE
738C
3188
3188
19D0
1AD0
1AD0
0C60
0C60
ENDCHAR
STARTCHAR 1EF2
ENCODING 7922
SWIDTH 617 0
DWIDTH 12 0
BBX 13 16 0 0
BITMAP
0E00
0700
0000
F8F8
3060
30C0
18C0
1980
0F00
0F00
0600
0600
0600
0600
0600
1F80
ENDCHAR
STARTCHAR 1EF3
ENCODING 7923
SWIDTH 514 0
DWIDTH 10 0
BBX 10 17 0 -4
BITMAP
1C00
0E00
0000
0000
FBC0
6080
3100
3100
1A00
1A00
0E00
0C00
0C00
0800
0800
D000
F000
ENDCHAR
STARTCHAR 2013
ENCODING 8211
SWIDTH 514 0
DWIDTH 10 0
BBX 10 1 0 4
BITMAP
FFC0
ENDCHAR
STARTCHAR 2014
ENCODING 8212
SWIDTH 977 0
DWIDTH 19 0
BBX 19 1 0 4
BITMAP
FFFFE0
ENDCHAR
STARTCHAR 2015
ENCODING 8213
SWIDTH 720 0
DWIDTH 14 0
BBX 14 1 0 4
BITMAP
FFFC
ENDCHAR
STARTCHAR 2017
ENCODING 8215
SWIDTH 514 0
DWIDTH 10 0
BBX 10 3 0 -4
BITMAP
FFC0
0000
FFC0
ENDCHAR
STARTCHAR 2018
ENCODING 8216
SWIDTH 205 0
DWIDTH 4 0
BBX 3 5 2 9
BITMAP
20
40
80
E0
E0
ENDCHAR
STARTCHAR 2019
ENCODING 8217
SWIDTH 205 0
DWIDTH 4 0
BBX 3 5 2 9
BITMAP
E0
E0
20
40
80
ENDCHAR
STARTCHAR 201A
ENCODING 8218
SWIDTH 205 0
DWIDTH 4 0
BBX 3 5 2 -3
BITMAP
E0
E0
20
40
80
ENDCHAR
STARTCHAR 201B
ENCODING 8219
SWIDTH 205 0
DWIDTH 4 0
BBX 3 5 1 9
BITMAP
E0
E0
80
40
20
ENDCHAR
STARTCHAR 201C
ENCODING 8220
SWIDTH 411 0
DWIDTH 8 0
BBX 7 5 1 9
BITMAP
22
44
88
EE
EE
ENDCHAR
STARTCHAR 201D
ENCODING 8221
SWIDTH 411 0
DWIDTH 8 0
BBX 7 5 1 9
BITMAP
EE
EE
22
44
88
ENDCHAR
STARTCHAR 201E
ENCODING 8222
SWIDTH 411 0
DWIDTH 8 0
BBX 7 5 1 -3
BITMAP
EE
EE
22
44
88
ENDCHAR
STARTCHAR 2020
ENCODING 8224
SWIDTH 514 0
DWIDTH 10 0
BBX 9 16 2 -3
BITMAP
1C00
1C00
1C00
0800
FF80
0800
1C00
1C00
0800
0800
0800
0800
0800
0800
0800
0800
ENDCHAR
STARTCHAR 2021
ENCODING 8225
SWIDTH 514 0
DWIDTH 10 0
BBX 9 16 1 -3
BITMAP
1C00
1C00
1C00
0800
FF80
0800
0800
1C00
1C00
0800
0800
FF80
0800
1C00
1C00
1C00
ENDCHAR
STARTCHAR 2022
ENCODING 8226
SWIDTH 462 0
DWIDTH 9 0
BBX 5 6 1 3
BITMAP
70
F8
F8
F8
F8
70
ENDCHAR
STARTCHAR 2026
ENCODING 8230
SWIDTH 977 0
DWIDTH 19 0
BBX 14 2 2 0
BITMAP
C30C
C30C
ENDCHAR
STARTCHAR 2030
ENCODING 8240
SWIDTH 1388 0
DWIDTH 27 0
BBX 26 13 0 0
BITMAP
380C0000
E40C0000
C6180000
C6300000
C6700000
EC600000
78CE0700
01990C80
01B198C0
033198C0
063198C0
0C1B1D80
0C0E0F00
ENDCHAR
STARTCHAR 2032
ENCODING 8242
SWIDTH 205 0
DWIDTH 4 0
BBX 3 5 1 8
BITMAP
60
60
40
C0
80
ENDCHAR
STARTCHAR 2033
ENCODING 8243
SWIDTH 360 0
DWIDTH 7 0
BBX 7 5 1 8
BITMAP
66
66
44
CC
88
ENDCHAR
STARTCHAR 2039
ENCODING 8249
SWIDTH 257 0
DWIDTH 5 0
BBX 3 6 1 1
BITMAP
20
40
80
80
40
20
ENDCHAR
STARTCHAR 203A
ENCODING 8250
SWIDTH 257 0
DWIDTH 5 0
BBX 3 6 1 1
BITMAP
80
40
20
20
40
80
ENDCHAR
STARTCHAR 203C
ENCODING 8252
SWIDTH 514 0
DWIDTH 10 0
BBX 6 13 1 0
BITMAP
CC
CC
CC
CC
CC
CC
44
44
44
44
00
CC
CC
ENDCHAR
STARTCHAR 203E
ENCODING 8254
SWIDTH 617 0
DWIDTH 12 0
BBX 12 1 0 16
BITMAP
FFF0
ENDCHAR
STARTCHAR 2044
ENCODING 8260
SWIDTH 154 0
DWIDTH 3 0
BBX 8 13 -3 0
BITMAP
03
03
06
06
0C
0C
18
38
30
60
60
C0
C0
ENDCHAR
STARTCHAR 207F
ENCODING 8319
SWIDTH 411 0
DWIDTH 8 0
BBX 8 6 0 5
BITMAP
EE
76
66
66
66
F7
ENDCHAR
STARTCHAR 20A3
ENCODING 8355
SWIDTH 617 0
DWIDTH 12 0
BBX 11 13 1 0
BITMAP
FFC0
3040
3020
3020
3100
3100
3F00
3100
3100
F800
3000
3000
FC00
ENDCHAR
STARTCHAR 20A4
ENCODING 8356
SWIDTH 617 0
DWIDTH 12 0
BBX 12 13 0 0
BITMAP
0F80
1840
3020
3020
3000
FF80
1800
FF80
1C10
6C10
9C10
8E20
71C0
ENDCHAR
STARTCHAR 20A7
ENCODING 8359
SWIDTH 1337 0
DWIDTH 26 0
BBX 25 13 1 0
BITMAP
FF800000
30C40000
30640000
306C0000
307FFE00
30EC6300
3F8C6100
300C3800
300C1F00
300C0380
300C4180
300C7180
FC07AF00
ENDCHAR
STARTCHAR 20AC
ENCODING 8364
SWIDTH 617 0
DWIDTH 12 0
BBX 11 13 0 0
BITMAP
0FC0
18C0
3060
2020
6000
FF80
6000
FF80
6000
3000
3020
1840
0F80
ENDCHAR
STARTCHAR 2105
ENCODING 8453
SWIDTH 822 0
DWIDTH 16 0
BBX 14 13 1 0
BITMAP
7818
C430
C060
C060
C4C0
7980
0380
0378
06CC
0CCC
0CCC
18CC
3078
ENDCHAR
STARTCHAR 2113
ENCODING 8467
SWIDTH 462 0
DWIDTH 9 0
BBX 8 13 1 0
BITMAP
1C
32
32
32
34
38
30
30
30
70
B1
32
1C
ENDCHAR
STARTCHAR 2116
ENCODING 8470
SWIDTH 1028 0
DWIDTH 20 0
BBX 19 13 0 0
BITMAP
FCFC00
3C3000
363000
363000
3331C0
333220
333220
31B220
31B220
30F220
30F1C0
307000
FC73E0
ENDCHAR
STARTCHAR 2122
ENCODING 8482
SWIDTH 977 0
DWIDTH 19 0
BBX 18 7 0 5
BITMAP
FCE3C0
B47380
307380
305580
305D80
305D80
78EBC0
ENDCHAR
STARTCHAR 2126
ENCODING 8486
SWIDTH 771 0
DWIDTH 15 0
BBX 13 13 1 0
BITMAP
0F80
3060
6030
C018
C018
C018
C018
C018
C030
6030
B0E8
9088
F0F8
ENDCHAR
STARTCHAR 212E
ENCODING 8494
SWIDTH 565 0
DWIDTH 11 0
BBX 9 10 1 0
BITMAP
3E00
4300
4100
C180
FF80
C000
C000
C100
6200
3C00
ENDCHAR
STARTCHAR 215B
ENCODING 8539
SWIDTH 925 0
DWIDTH 18 0
BBX 14 13 2 0
BITMAP
E060
6060
60C0
60C0
6180
6180
F378
07CC
06E8
0C38
0CFC
18CC
1878
ENDCHAR
STARTCHAR 215C
ENCODING 8540
SWIDTH 925 0
DWIDTH 18 0
BBX 16 13 0 0
BITMAP
7818
8C18
0C30
3030
0C60
8C60
78DE
01F3
01BA
030E
033F
0633
061E
ENDCHAR
STARTCHAR 215D
ENCODING 8541
SWIDTH 925 0
DWIDTH 18 0
BBX 14 13 2 0
BITMAP
F860
8060
F0C0
18C0
1980
9980
7378
07CC
06E8
0C38
0CFC
18CC
1878
ENDCHAR
STARTCHAR 215E
ENCODING 8542
SWIDTH 925 0
DWIDTH 18 0
BBX 16 13 0 0
BITMAP
7E30
8430
0860
1860
18C0
30C0
319E
03B3
033A
060E
063F
0C33
0C1E
ENDCHAR
STARTCHAR 2190
ENCODING 8592
SWIDTH 977 0
DWIDTH 19 0
BBX 18 7 1 1
BITMAP
080000
100000
600000
FFFFC0
600000
100000
080000
ENDCHAR
STARTCHAR 2191
ENCODING 8593
SWIDTH 514 0
DWIDTH 10 0
BBX 7 18 2 -4
BITMAP
10
38
38
54
92
10
10
10
10
10
10
10
10
10
10
10
10
10
ENDCHAR
STARTCHAR 2192
ENCODING 8594
SWIDTH 977 0
DWIDTH 19 0
BBX 18 7 1 1
BITMAP
000400
000200
000180
FFFFC0
000180
000200
000400
ENDCHAR
STARTCHAR 2193
ENCODING 8595
SWIDTH 514 0
DWIDTH 10 0
BBX 7 18 2 -4
BITMAP
10
10
10
10
10
10
10
10
10
10
10
10
10
92
54
38
38
10
ENDCHAR
STARTCHAR 2194
ENCODING 8596
SWIDTH 977 0
DWIDTH 19 0
BBX 18 7 1 1
BITMAP
080400
100200
600180
FFFFC0
600180
100200
080400
ENDCHAR
STARTCHAR 2195
ENCODING 8597
SWIDTH 514 0
DWIDTH 10 0
BBX 7 18 2 -4
BITMAP
10
38
38
54
92
10
10
10
10
10
10
10
10
92
54
38
38
10
ENDCHAR
STARTCHAR 21A8
ENCODING 8616
SWIDTH 514 0
DWIDTH 10 0
BBX 7 20 2 -6
BITMAP
10
38
38
54
92
10
10
10
10
10
10
10
10
92
54
38
38
10
00
FE
ENDCHAR
STARTCHAR 2202
ENCODING 8706
SWIDTH 462 0
DWIDTH 9 0
BBX 8 13 1 0
BITMAP
0E
32
21
01
1D
33
61
C1
C2
C2
C6
C4
78
ENDCHAR
STARTCHAR 2206
ENCODING 8710
SWIDTH 617 0
DWIDTH 12 0
BBX 12 12 0 0
BITMAP
0600
0600
0B00
0B00
1180
1180
21C0
20C0
20C0
4060
4060
FFF0
ENDCHAR
STARTCHAR 220F
ENCODING 8719
SWIDTH 822 0
DWIDTH 16 0
BBX 15 17 0 -4
BITMAP
FFFE
3018
3018
3018
3018
3018
3018
3018
3018
3018
3018
3018
3018
3018
3018
3018
FC7E
ENDCHAR
STARTCHAR 2211
ENCODING 8721
SWIDTH 720 0
DWIDTH 14 0
BBX 14 17 0 -4
BITMAP
FFF8
6018
3008
1800
1800
0C00
0600
0300
0100
0200
0400
0800
1000
1000
2004
400C
FFF8
ENDCHAR
STARTCHAR 2212
ENCODING 8722
SWIDTH 565 0
DWIDTH 11 0
BBX 9 2 1 6
BITMAP
FF80
FF80
ENDCHAR
STARTCHAR 2215
ENCODING 8725
SWIDTH 154 0
DWIDTH 3 0
BBX 8 13 -3 0
BITMAP
03
03
06
06
0C
0C
18
38
30
60
60
C0
C0
ENDCHAR
STARTCHAR 2219
ENCODING 8729
SWIDTH 308 0
DWIDTH 6 0
BBX 2 2 2 5
BITMAP
C0
C0
ENDCHAR
STARTCHAR 221A
ENCODING 8730
SWIDTH 514 0
DWIDTH 10 0
BBX 9 17 1 1
BITMAP
0080
0080
0080
0100
0100
0100
0100
0100
6100
E100
7200
3A00
1A00
1E00
0E00
0E00
0600
ENDCHAR
STARTCHAR 221E
ENCODING 8734
SWIDTH 720 0
DWIDTH 14 0
BBX 13 8 0 1
BITMAP
01E0
7910
CB08
8608
8608
8608
4D10
38E0
ENDCHAR
STARTCHAR 221F
ENCODING 8735
SWIDTH 977 0
DWIDTH 19 0
BBX 12 12 3 0
BITMAP
8000
8000
8000
8000
8000
8000
8000
8000
8000
8000
8000
FFF0
ENDCHAR
STARTCHAR 2229
ENCODING 8745
SWIDTH 720 0
DWIDTH 14 0
BBX 10 13 2 0
BITMAP
1E00
7380
6180
C0C0
C0C0
C0C0
C0C0
C0C0
C0C0
C0C0
C0C0
C0C0
C0C0
ENDCHAR
STARTCHAR 222B
ENCODING 8747
SWIDTH 257 0
DWIDTH 5 0
BBX 5 19 0 -1
BITMAP
38
68
60
60
60
60
60
60
60
60
60
60
60
60
60
60
60
60
C0
ENDCHAR
STARTCHAR 2248
ENCODING 8776
SWIDTH 514 0
DWIDTH 10 0
BBX 8 6 1 3
BITMAP
71
CE
00
01
73
8E
ENDCHAR
STARTCHAR 2260
ENCODING 8800
SWIDTH 514 0
DWIDTH 10 0
BBX 9 12 0 1
BITMAP
0180
0180
0300
FF80
FF80
0C00
0C00
FF80
FF80
3000
6000
6000
ENDCHAR
STARTCHAR 2261
ENCODING 8801
SWIDTH 565 0
DWIDTH 11 0
BBX 9 5 1 4
BITMAP
FF80
0000
FF80
0000
FF80
ENDCHAR
STARTCHAR 2264
ENCODING 8804
SWIDTH 514 0
DWIDTH 10 0
BBX 8 12 1 1
BITMAP
01
0F
3E
F0
C0
F0
3E
0F
01
00
FF
FF
ENDCHAR
STARTCHAR 2265
ENCODING 8805
SWIDTH 514 0
DWIDTH 10 0
BBX 8 12 1 1
BITMAP
80
F0
7C
0F
03
0F
7C
F0
80
00
FF
FF
ENDCHAR
STARTCHAR 2302
ENCODING 8962
SWIDTH 565 0
DWIDTH 11 0
BBX 9 10 1 0
BITMAP
0C00
1200
2100
4100
8080
8080
8080
8080
8080
FF80
ENDCHAR
STARTCHAR 2310
ENCODING 8976
SWIDTH 565 0
DWIDTH 11 0
BBX 9 7 1 0
BITMAP
FF80
8000
8000
8000
8000
8000
8000
ENDCHAR
STARTCHAR 2320
ENCODING 8992
SWIDTH 565 0
DWIDTH 11 0
BBX 4 21 5 -5
BITMAP
70
90
80
80
80
80
80
80
80
80
80
80
80
80
80
80
80
80
80
80
80
ENDCHAR
STARTCHAR 2321
ENCODING 8993
SWIDTH 565 0
DWIDTH 11 0
BBX 4 21 2 -5
BITMAP
10
10
10
10
10
10
10
10
10
10
10
10
10
10
10
10
10
10
10
D0
60
ENDCHAR
STARTCHAR 2500
ENCODING 9472
SWIDTH 668 0
DWIDTH 13 0
BBX 14 2 0 5
BITMAP
FFFC
FFFC
ENDCHAR
STARTCHAR 2502
ENCODING 9474
SWIDTH 617 0
DWIDTH 12 0
BBX 2 23 4 -6
BITMAP
C0
C0
C0
C0
C0
C0
C0
C0
C0
C0
C0
C0
C0
C0
C0
C0
C0
C0
C0
C0
C0
C0
C0
ENDCHAR
STARTCHAR 250C
ENCODING 9484
SWIDTH 668 0
DWIDTH 13 0
BBX 8 13 6 -6
BITMAP
FF
FF
C0
C0
C0
C0
C0
C0
C0
C0
C0
C0
C0
ENDCHAR
STARTCHAR 2510
ENCODING 9488
SWIDTH 668 0
DWIDTH 13 0
BBX 8 13 0 -6
BITMAP
FF
FF
03
03
03
03
03
03
03
03
03
03
03
ENDCHAR
STARTCHAR 2514
ENCODING 9492
SWIDTH 668 0
DWIDTH 13 0
BBX 8 12 6 5
BITMAP
C0
C0
C0
C0
C0
C0
C0
C0
C0
C0
FF
FF
ENDCHAR
STARTCHAR 2518
ENCODING 9496
SWIDTH 668 0
DWIDTH 13 0
BBX 8 12 0 5
BITMAP
03
03
03
03
03
03
03
03
03
03
FF
FF
ENDCHAR
STARTCHAR 251C
ENCODING 9500
SWIDTH 668 0
DWIDTH 13 0
BBX 8 23 6 -6
BITMAP
C0
C0
C0
C0
C0
C0
C0
C0
C0
C0
FF
FF
C0
C0
C0
C0
C0
C0
C0
C0
C0
C0
C0
ENDCHAR
STARTCHAR 2524
ENCODING 9508
SWIDTH 668 0
DWIDTH 13 0
BBX 8 23 0 -6
BITMAP
03
03
03
03
03
03
03
03
03
03
FF
FF
03
03
03
03
03
03
03
03
03
03
03
ENDCHAR
STARTCHAR 252C
ENCODING 9516
SWIDTH 668 0
DWIDTH 13 0
BBX 14 13 0 -6
BITMAP
FFFC
FFFC
0300
0300
0300
0300
0300
0300
0300
0300
0300
0300
0300
ENDCHAR
STARTCHAR 2534
ENCODING 9524
SWIDTH 668 0
DWIDTH 13 0
BBX 14 12 0 5
BITMAP
0300
0300
0300
0300
0300
0300
0300
0300
0300
0300
FFFC
FFFC
ENDCHAR
STARTCHAR 253C
ENCODING 9532
SWIDTH 668 0
DWIDTH 13 0
BBX 14 23 0 -6
BITMAP
0300
0300
0300
0300
0300
0300
0300
0300
0300
0300
FFFC
FFFC
0300
0300
0300
0300
0300
0300
0300
0300
0300
0300
0300
ENDCHAR
STARTCHAR 2550
ENCODING 9552
SWIDTH 668 0
DWIDTH 13 0
BBX 14 5 0 3
BITMAP
FFFC
0000
0000
FFFC
FFFC
ENDCHAR
STARTCHAR 2551
ENCODING 9553
SWIDTH 668 0
DWIDTH 13 0
BBX 5 23 4 -6
BITMAP
C8
C8
C8
C8
C8
C8
C8
C8
C8
C8
C8
C8
C8
C8
C8
C8
C8
C8
C8
C8
C8
C8
C8
ENDCHAR
STARTCHAR 2552
ENCODING 9554
SWIDTH 668 0
DWIDTH 13 0
BBX 8 14 6 -6
BITMAP
FF
C0
C0
FF
FF
C0
C0
C0
C0
C0
C0
C0
C0
C0
ENDCHAR
STARTCHAR 2553
ENCODING 9555
SWIDTH 668 0
DWIDTH 13 0
BBX 10 13 4 -6
BITMAP
FFC0
FFC0
C800
C800
C800
C800
C800
C800
C800
C800
C800
C800
C800
ENDCHAR
STARTCHAR 2554
ENCODING 9556
SWIDTH 668 0
DWIDTH 13 0
BBX 10 14 4 -6
BITMAP
FFC0
C000
C000
CFC0
CFC0
C800
C800
C800
C800
C800
C800
C800
C800
C800
ENDCHAR
STARTCHAR 2555
ENCODING 9557
SWIDTH 668 0
DWIDTH 13 0
BBX 8 14 0 -6
BITMAP
FF
03
03
FF
FF
03
03
03
03
03
03
03
03
03
ENDCHAR
STARTCHAR 2556
ENCODING 9558
SWIDTH 668 0
DWIDTH 13 0
BBX 9 13 0 -6
BITMAP
FF80
FF80
0C80
0C80
0C80
0C80
0C80
0C80
0C80
0C80
0C80
0C80
0C80
ENDCHAR
STARTCHAR 2557
ENCODING 9559
SWIDTH 668 0
DWIDTH 13 0
BBX 9 14 0 -6
BITMAP
FF80
0080
0080
FC80
FC80
0C80
0C80
0C80
0C80
0C80
0C80
0C80
0C80
0C80
ENDCHAR
STARTCHAR 2558
ENCODING 9560
SWIDTH 668 0
DWIDTH 13 0
BBX 8 14 6 3
BITMAP
C0
C0
C0
C0
C0
C0
C0
C0
C0
FF
C0
C0
FF
FF
ENDCHAR
STARTCHAR 2559
ENCODING 9561
SWIDTH 668 0
DWIDTH 13 0
BBX 10 12 4 5
BITMAP
C800
C800
C800
C800
C800
C800
C800
C800
C800
C800
FFC0
FFC0
ENDCHAR
STARTCHAR 255A
ENCODING 9562
SWIDTH 668 0
DWIDTH 13 0
BBX 10 14 4 3
BITMAP
C800
C800
C800
C800
C800
C800
C800
C800
C800
CFC0
C000
C000
FFC0
FFC0
ENDCHAR
STARTCHAR 255B
ENCODING 9563
SWIDTH 668 0
DWIDTH 13 0
BBX 8 14 0 3
BITMAP
03
03
03
03
03
03
03
03
03
FF
03
03
FF
FF
ENDCHAR
STARTCHAR 255C
ENCODING 9564
SWIDTH 668 0
DWIDTH 13 0
BBX 9 12 0 5
BITMAP
0C80
0C80
0C80
0C80
0C80
0C80
0C80
0C80
0C80
0C80
FF80
FF80
ENDCHAR
STARTCHAR 255D
ENCODING 9565
SWIDTH 668 0
DWIDTH 13 0
BBX 9 14 0 3
BITMAP
0C80
0C80
0C80
0C80
0C80
0C80
0C80
0C80
0C80
FC80
0080
0080
FF80
FF80
ENDCHAR
STARTCHAR 255E
ENCODING 9566
SWIDTH 668 0
DWIDTH 13 0
BBX 8 23 6 -6
BITMAP
C0
C0
C0
C0
C0
C0
C0
C0
C0
FF
C0
C0
FF
FF
C0
C0
C0
C0
C0
C0
C0
C0
C0
ENDCHAR
STARTCHAR 255F
ENCODING 9567
SWIDTH 668 0
DWIDTH 13 0
BBX 10 23 4 -6
BITMAP
C800
C800
C800
C800
C800
C800
C800
C800
C800
C800
CFC0
CFC0
C800
C800
C800
C800
C800
C800
C800
C800
C800
C800
C800
ENDCHAR
STARTCHAR 2560
ENCODING 9568
SWIDTH 668 0
DWIDTH 13 0
BBX 10 23 4 -6
BITMAP
C800
C800
C800
C800
C800
C800
C800
C800
C800
CFC0
C000
C000
CFC0
CFC0
C800
C800
C800
C800
C800
C800
C800
C800
C800
ENDCHAR
STARTCHAR 2561
ENCODING 9569
SWIDTH 668 0
DWIDTH 13 0
BBX 8 23 0 -6
BITMAP
03
03
03
03
03
03
03
03
03
FF
03
03
FF
FF
03
03
03
03
03
03
03
03
03
ENDCHAR
STARTCHAR 2562
ENCODING 9570
SWIDTH 668 0
DWIDTH 13 0
BBX 9 23 0 -6
BITMAP
0C80
0C80
0C80
0C80
0C80
0C80
0C80
0C80
0C80
0C80
FC80
FC80
0C80
0C80
0C80
0C80
0C80
0C80
0C80
0C80
0C80
0C80
0C80
ENDCHAR
STARTCHAR 2563
ENCODING 9571
SWIDTH 668 0
DWIDTH 13 0
BBX 9 23 0 -6
BITMAP
0C80
0C80
0C80
0C80
0C80
0C80
0C80
0C80
0C80
FC80
0080
0080
FC80
FC80
0C80
0C80
0C80
0C80
0C80
0C80
0C80
0C80
0C80
ENDCHAR
STARTCHAR 2564
ENCODING 9572
SWIDTH 668 0
DWIDTH 13 0
BBX 14 14 0 -6
BITMAP
FFFC
0000
0000
FFFC
FFFC
0300
0300
0300
0300
0300
0300
0300
0300
0300
ENDCHAR
STARTCHAR 2565
ENCODING 9573
SWIDTH 668 0
DWIDTH 13 0
BBX 14 13 0 -6
BITMAP
FFFC
FFFC
0C80
0C80
0C80
0C80
0C80
0C80
0C80
0C80
0C80
0C80
0C80
ENDCHAR
STARTCHAR 2566
ENCODING 9574
SWIDTH 668 0
DWIDTH 13 0
BBX 14 14 0 -6
BITMAP
FFFC
0000
0000
FCFC
FCFC
0C80
0C80
0C80
0C80
0C80
0C80
0C80
0C80
0C80
ENDCHAR
STARTCHAR 2567
ENCODING 9575
SWIDTH 668 0
DWIDTH 13 0
BBX 14 14 0 3
BITMAP
0300
0300
0300
0300
0300
0300
0300
0300
0300
FFFC
0000
0000
FFFC
FFFC
ENDCHAR
STARTCHAR 2568
ENCODING 9576
SWIDTH 668 0
DWIDTH 13 0
BBX 14 12 0 5
BITMAP
0C80
0C80
0C80
0C80
0C80
0C80
0C80
0C80
0C80
0C80
FFFC
FFFC
ENDCHAR
STARTCHAR 2569
ENCODING 9577
SWIDTH 668 0
DWIDTH 13 0
BBX 14 14 0 3
BITMAP
0C80
0C80
0C80
0C80
0C80
0C80
0C80
0C80
0C80
FCFC
0000
0000
FFFC
FFFC
ENDCHAR
STARTCHAR 256A
ENCODING 9578
SWIDTH 668 0
DWIDTH 13 0
BBX 14 23 0 -6
BITMAP
0300
0300
0300
0300
0300
0300
0300
0300
0300
FFFC
0300
0300
FFFC
FFFC
0300
0300
0300
0300
0300
0300
0300
0300
0300
ENDCHAR
STARTCHAR 256B
ENCODING 9579
SWIDTH 668 0
DWIDTH 13 0
BBX 14 23 0 -6
BITMAP
0C80
0C80
0C80
0C80
0C80
0C80
0C80
0C80
0C80
0C80
FFFC
FFFC
0C80
0C80
0C80
0C80
0C80
0C80
0C80
0C80
0C80
0C80
0C80
ENDCHAR
STARTCHAR 256C
ENCODING 9580
SWIDTH 668 0
DWIDTH 13 0
BBX 14 23 0 -6
BITMAP
0C80
0C80
0C80
0C80
0C80
0C80
0C80
0C80
0C80
FCFC
0000
0000
FCFC
FCFC
0C80
0C80
0C80
0C80
0C80
0C80
0C80
0C80
0C80
ENDCHAR
STARTCHAR 2580
ENCODING 9600
SWIDTH 668 0
DWIDTH 13 0
BBX 14 11 0 6
BITMAP
FFFC
FFFC
FFFC
FFFC
FFFC
FFFC
FFFC
FFFC
FFFC
FFFC
FFFC
ENDCHAR
STARTCHAR 2584
ENCODING 9604
SWIDTH 668 0
DWIDTH 13 0
BBX 14 12 0 -6
BITMAP
FFFC
FFFC
FFFC
FFFC
FFFC
FFFC
FFFC
FFFC
FFFC
FFFC
FFFC
FFFC
ENDCHAR
STARTCHAR 2588
ENCODING 9608
SWIDTH 668 0
DWIDTH 13 0
BBX 14 23 0 -6
BITMAP
FFFC
FFFC
FFFC
FFFC
FFFC
FFFC
FFFC
FFFC
FFFC
FFFC
FFFC
FFFC
FFFC
FFFC
FFFC
FFFC
FFFC
FFFC
FFFC
FFFC
FFFC
FFFC
FFFC
ENDCHAR
STARTCHAR 258C
ENCODING 9612
SWIDTH 668 0
DWIDTH 13 0
BBX 7 23 0 -6
BITMAP
FE
FE
FE
FE
FE
FE
FE
FE
FE
FE
FE
FE
FE
FE
FE
FE
FE
FE
FE
FE
FE
FE
FE
ENDCHAR
STARTCHAR 2590
ENCODING 9616
SWIDTH 668 0
DWIDTH 13 0
BBX 7 23 7 -6
BITMAP
FE
FE
FE
FE
FE
FE
FE
FE
FE
FE
FE
FE
FE
FE
FE
FE
FE
FE
FE
FE
FE
FE
FE
ENDCHAR
STARTCHAR 2591
ENCODING 9617
SWIDTH 668 0
DWIDTH 13 0
BBX 13 22 1 -5
BITMAP
8440
0000
2108
0000
8440
0000
0000
2108
0000
8440
0000
2108
0000
0000
8440
0000
2108
0000
8440
0000
0000
2108
ENDCHAR
STARTCHAR 2592
ENCODING 9618
SWIDTH 668 0
DWIDTH 13 0
BBX 14 22 0 -5
BITMAP
52A4
0000
AD58
0000
52A4
0000
0000
AD58
0000
52A4
0000
AD58
0000
0000
52A4
0000
AD58
0000
52A4
0000
0000
AD58
ENDCHAR
STARTCHAR 2593
ENCODING 9619
SWIDTH 720 0
DWIDTH 14 0
BBX 14 23 0 -6
BITMAP
5AB4
FFFC
A548
FFFC
5AB4
FFFC
FFFC
A548
FFFC
5AB4
FFFC
A548
FFFC
FFFC
5AB4
FFFC
A548
FFFC
5AB4
FFFC
FFFC
A548
FFFC
ENDCHAR
STARTCHAR 25A0
ENCODING 9632
SWIDTH 565 0
DWIDTH 11 0
BBX 9 9 1 0
BITMAP
FF80
FF80
FF80
FF80
FF80
FF80
FF80
FF80
FF80
ENDCHAR
STARTCHAR 25A1
ENCODING 9633
SWIDTH 565 0
DWIDTH 11 0
BBX 9 9 1 0
BITMAP
FF80
8080
8080
8080
8080
8080
8080
8080
FF80
ENDCHAR
STARTCHAR 25AA
ENCODING 9642
SWIDTH 360 0
DWIDTH 7 0
BBX 4 4 1 4
BITMAP
F0
F0
F0
F0
ENDCHAR
STARTCHAR 25AB
ENCODING 9643
SWIDTH 360 0
DWIDTH 7 0
BBX 5 5 1 4
BITMAP
F8
88
88
88
F8
ENDCHAR
STARTCHAR 25AC
ENCODING 9644
SWIDTH 977 0
DWIDTH 19 0
BBX 19 4 0 3
BITMAP
FFFFE0
FFFFE0
FFFFE0
FFFFE0
ENDCHAR
STARTCHAR 25B2
ENCODING 9650
SWIDTH 977 0
DWIDTH 19 0
BBX 13 13 3 0
BITMAP
0200
0200
0700
0700
0F80
0F80
1FC0
1FC0
3FE0
3FE0
7FF0
7FF0
FFF8
ENDCHAR
STARTCHAR 25BA
ENCODING 9658
SWIDTH 977 0
DWIDTH 19 0
BBX 13 13 3 0
BITMAP
8000
E000
F800
FE00
FF80
FFE0
FFF8
FFE0
FF80
FE00
F800
E000
8000
ENDCHAR
STARTCHAR 25BC
ENCODING 9660
SWIDTH 977 0
DWIDTH 19 0
BBX 13 13 3 0
BITMAP
FFF8
7FF0
7FF0
3FE0
3FE0
1FC0
1FC0
0F80
0F80
0700
0700
0200
0200
ENDCHAR
STARTCHAR 25C4
ENCODING 9668
SWIDTH 977 0
DWIDTH 19 0
BBX 13 13 3 0
BITMAP
0008
0038
00F8
03F8
0FF8
3FF8
FFF8
3FF8
0FF8
03F8
00F8
0038
0008
ENDCHAR
STARTCHAR 25CA
ENCODING 9674
SWIDTH 462 0
DWIDTH 9 0
BBX 9 13 0 0
BITMAP
1C00
3600
3600
6300
6300
C180
C180
C180
6300
6300
3600
3600
1C00
ENDCHAR
STARTCHAR 25CB
ENCODING 9675
SWIDTH 565 0
DWIDTH 11 0
BBX 9 8 1 1
BITMAP
3E00
4100
4080
8080
8080
4100
2100
1E00
ENDCHAR
STARTCHAR 25CF
ENCODING 9679
SWIDTH 565 0
DWIDTH 11 0
BBX 8 8 1 1
BITMAP
3C
7E
FF
FF
FF
FF
7E
3C
ENDCHAR
STARTCHAR 25D8
ENCODING 9688
SWIDTH 565 0
DWIDTH 11 0
BBX 9 9 1 0
BITMAP
FF80
FF80
FF80
E380
E180
E380
FF80
FF80
FF80
ENDCHAR
STARTCHAR 25D9
ENCODING 9689
SWIDTH 565 0
DWIDTH 11 0
BBX 11 11 0 0
BITMAP
FFE0
FFE0
EEE0
DF60
DFA0
FFA0
FFA0
DFE0
EF60
F1E0
FFE0
ENDCHAR
STARTCHAR 25E6
ENCODING 9702
SWIDTH 360 0
DWIDTH 7 0
BBX 5 5 1 4
BITMAP
70
88
88
88
70
ENDCHAR
STARTCHAR 263A
ENCODING 9786
SWIDTH 977 0
DWIDTH 19 0
BBX 12 12 4 -1
BITMAP
0E00
3180
4040
8020
91A0
9110
8010
8020
9120
4E60
20C0
1F00
ENDCHAR
STARTCHAR 263B
ENCODING 9787
SWIDTH 1028 0
DWIDTH 20 0
BBX 12 12 4 -1
BITMAP
0F00
3FC0
7FE0
7FE0
EF70
EF70
FFF0
FFF0
6FE0
71E0
3FC0
1F80
ENDCHAR
STARTCHAR 263C
ENCODING 9788
SWIDTH 874 0
DWIDTH 17 0
BBX 17 17 0 -2
BITMAP
008000
008000
208200
11E400
0E1800
080800
100400
100400
F00780
100400
100400
080800
0C1800
13E400
208200
008000
008000
ENDCHAR
STARTCHAR 2640
ENCODING 9792
SWIDTH 514 0
DWIDTH 10 0
BBX 10 15 0 -2
BITMAP
1F00
6080
4080
8040
8040
8080
4080
2100
1E00
0800
0800
0800
3F00
0800
0800
ENDCHAR
STARTCHAR 2642
ENCODING 9794
SWIDTH 668 0
DWIDTH 13 0
BBX 12 16 0 -3
BITMAP
0020
00E0
03E0
00A0
00A0
0110
0100
0200
1F00
6080
4080
8040
8040
40C0
2180
1F00
ENDCHAR
STARTCHAR 2660
ENCODING 9824
SWIDTH 514 0
DWIDTH 10 0
BBX 9 10 1 0
BITMAP
1800
3C00
7E00
FF00
FF00
FF80
F700
1000
1800
3E00
ENDCHAR
STARTCHAR 2663
ENCODING 9827
SWIDTH 668 0
DWIDTH 13 0
BBX 11 11 1 0
BITMAP
1E00
1F00
1F00
7EC0
FFE0
FFE0
FFE0
FBC0
0400
0C00
3F00
ENDCHAR
STARTCHAR 2665
ENCODING 9829
SWIDTH 565 0
DWIDTH 11 0
BBX 10 11 1 0
BITMAP
F780
F7C0
FFC0
FF80
FF80
7F00
3E00
1E00
1C00
0800
0800
ENDCHAR
STARTCHAR 2666
ENCODING 9830
SWIDTH 514 0
DWIDTH 10 0
BBX 8 11 1 0
BITMAP
10
18
3C
7E
FE
FF
FE
7C
3C
18
10
ENDCHAR
STARTCHAR 266A
ENCODING 9834
SWIDTH 771 0
DWIDTH 15 0
BBX 14 18 0 -4
BITMAP
0040
0060
00B0
0098
008C
0084
0080
0080
0080
0080
0080
0080
3F80
7F80
FF80
FF80
7F80
7E00
ENDCHAR
STARTCHAR 266B
ENCODING 9835
SWIDTH 977 0
DWIDTH 19 0
BBX 13 18 3 -4
BITMAP
0008
0078
03F8
07F8
0788
0408
0408
0408
0408
0408
0408
04F8
04F8
7DF8
FCF8
FCF0
F800
7800
ENDCHAR
STARTCHAR F000
ENCODING 61440
SWIDTH 771 0
DWIDTH 15 0
BBX 1 1 0 0
BITMAP
00
ENDCHAR
STARTCHAR F001
ENCODING 61441
SWIDTH 617 0
DWIDTH 12 0
BBX 12 14 0 0
BITMAP
0F00
1980
3180
3000
3000
FFC0
30C0
30C0
30C0
30C0
30C0
30C0
30C0
FFF0
ENDCHAR
STARTCHAR F002
ENCODING 61442
SWIDTH 617 0
DWIDTH 12 0
BBX 12 14 0 0
BITMAP
0FC0
19C0
30C0
30C0
30C0
FFC0
30C0
30C0
30C0
30C0
30C0
30C0
30C0
FFF0
ENDCHAR
STARTCHAR F003
ENCODING 61443
SWIDTH 360 0
DWIDTH 7 0
BBX 7 7 0 6
BITMAP
0C
1C
2C
4C
FE
0C
0C
ENDCHAR
STARTCHAR F004
ENCODING 61444
SWIDTH 308 0
DWIDTH 6 0
BBX 2 5 2 -6
BITMAP
C0
40
40
80
80
ENDCHAR
STARTCHAR F005
ENCODING 61445
SWIDTH 308 0
DWIDTH 6 0
BBX 3 3 1 -4
BITMAP
E0
20
E0
ENDCHAR
STARTCHAR F006
ENCODING 61446
SWIDTH 514 0
DWIDTH 10 0
BBX 11 9 1 0
BITMAP
7FE0
9980
1980
1980
1980
3180
3180
71A0
60C0
ENDCHAR
STARTCHAR F007
ENCODING 61447
SWIDTH 360 0
DWIDTH 7 0
BBX 5 7 1 6
BITMAP
F8
80
F0
18
18
98
70
ENDCHAR
STARTCHAR F008
ENCODING 61448
SWIDTH 360 0
DWIDTH 7 0
BBX 7 7 0 6
BITMAP
7E
84
08
18
18
30
30
ENDCHAR
STARTCHAR F009
ENCODING 61449
SWIDTH 360 0
DWIDTH 7 0
BBX 6 7 0 6
BITMAP
78
CC
E8
38
FC
CC
78
ENDCHAR
STARTCHAR F100
ENCODING 61696
SWIDTH 617 0
DWIDTH 12 0
BBX 10 13 1 0
BITMAP
FFC0
30C0
3040
3000
3000
3000
3000
3000
3000
3000
3000
3000
FC00
ENDCHAR
STARTCHAR F101
ENCODING 61697
SWIDTH 771 0
DWIDTH 15 0
BBX 13 13 1 0
BITMAP
0F80
3060
6030
6030
C898
CF98
CF98
C898
C018
6030
6030
3060
0F80
ENDCHAR
STARTCHAR F102
ENCODING 61698
SWIDTH 771 0
DWIDTH 15 0
BBX 13 13 1 0
BITMAP
1F80
0600
1FC0
6670
C610
C618
C618
C618
C610
6670
1FC0
0600
1F80
ENDCHAR
STARTCHAR F103
ENCODING 61699
SWIDTH 514 0
DWIDTH 10 0
BBX 9 9 1 0
BITMAP
3B00
6B00
C600
C200
C200
C600
C600
6E80
3900
ENDCHAR
STARTCHAR F104
ENCODING 61700
SWIDTH 462 0
DWIDTH 9 0
BBX 7 13 1 0
BITMAP
78
4C
44
20
10
38
4C
C6
C6
C6
C6
6C
38
ENDCHAR
STARTCHAR F105
ENCODING 61701
SWIDTH 411 0
DWIDTH 8 0
BBX 6 9 1 0
BITMAP
78
C4
C0
C0
30
C0
C4
CC
78
ENDCHAR
STARTCHAR F106
ENCODING 61702
SWIDTH 565 0
DWIDTH 11 0
BBX 10 9 1 0
BITMAP
3FC0
6200
C300
C180
C180
C180
6180
6300
1E00
ENDCHAR
STARTCHAR F107
ENCODING 61703
SWIDTH 411 0
DWIDTH 8 0
BBX 8 9 0 0
BITMAP
7E
98
18
18
18
18
18
19
0E
ENDCHAR
STARTCHAR F108
ENCODING 61704
SWIDTH 565 0
DWIDTH 11 0
BBX 9 13 1 -4
BITMAP
3600
6D00
CD80
CD80
CD80
CD80
CD80
6D00
3E00
0C00
0C00
0C00
0C00
ENDCHAR
STARTCHAR FB01
ENCODING 64257
SWIDTH 617 0
DWIDTH 12 0
BBX 12 14 0 0
BITMAP
0F00
1980
3180
3000
3000
FFC0
30C0
30C0
30C0
30C0
30C0
30C0
30C0
FFF0
ENDCHAR
STARTCHAR FB02
ENCODING 64258
SWIDTH 617 0
DWIDTH 12 0
BBX 12 14 0 0
BITMAP
0FC0
19C0
30C0
30C0
30C0
FFC0
30C0
30C0
30C0
30C0
30C0
30C0
30C0
FFF0
ENDCHAR
ENDFONT
